<?xml version="1.0" encoding="WINDOWS-1252" standalone="no"?>
<svg xmlns="http://www.w3.org/2000/svg" xmlns:xlink="http://www.w3.org/1999/xlink" height="441" version="1.1" viewBox="0 0 1698 441" width="1698">
  <defs>
    <linearGradient id="g1" x1="0%" x2="0%" y1="0%" y2="100%">
      <stop offset="0%" style="stop-color:#FFFFFF"/>
      <stop offset="100%" style="stop-color:#cfcfcf"/>
    </linearGradient>
  </defs>
  <rect fill="gray" height="55" rx="8.25" ry="8.25" stroke="gray" stroke-width="1.0" transform="translate(1 2)" width="85" x="447" y="240"/>
  <g id="node_8d5a1583-6b62-488a-ba95-66bb8c830c5d">
    <rect fill="url(#g1)" height="55" rx="8.25" ry="8.25" stroke="#000000" stroke-width="1.0" width="85" x="447" y="240"/>
  </g>
  <text fill="#000000" font-decoration="none" font-family="Arial,Helvetica" font-size="18" font-weight="normal" text-anchor="middle" x="490" y="265">B2+com</text>
  <text fill="#000000" font-decoration="none" font-family="Arial,Helvetica" font-size="18" font-weight="normal" text-anchor="middle" x="490" y="283">plete</text>
  <path d="M 613 297 L 634 318 L 613 339 L 592 318 Z" fill="gray" stroke="gray" stroke-width="1.0" transform="translate(1 2)"/>
  <g id="node_79b1e21a-0475-44a4-8c6f-9bf5aed01f82">
    <path d="M 613 297 L 634 318 L 613 339 L 592 318 Z" fill="url(#g1)" stroke="#000000" stroke-width="1.0"/>
    <path d=" M 605 318 L 621 318 M 613 310 L 613 326" fill="none" stroke="#000000" stroke-width="5.0"/>
  </g>
  <rect fill="gray" height="55" rx="8.25" ry="8.25" stroke="gray" stroke-width="1.0" transform="translate(1 2)" width="85" x="918" y="333"/>
  <g id="node_9b0e5fbf-8976-4c33-9239-9dfc3d4bf494">
    <rect fill="url(#g1)" height="55" rx="8.25" ry="8.25" stroke="#000000" stroke-width="1.0" width="85" x="918" y="333"/>
  </g>
  <text fill="#000000" font-decoration="none" font-family="Arial,Helvetica" font-size="18" font-weight="normal" text-anchor="middle" x="961" y="358">E1+com</text>
  <text fill="#000000" font-decoration="none" font-family="Arial,Helvetica" font-size="18" font-weight="normal" text-anchor="middle" x="961" y="376">plete</text>
  <rect fill="gray" height="55" rx="8.25" ry="8.25" stroke="gray" stroke-width="1.0" transform="translate(1 2)" width="85" x="918" y="48"/>
  <g id="node_55326bd8-7d3c-41c7-ba1c-6820917a6060">
    <rect fill="url(#g1)" height="55" rx="8.25" ry="8.25" stroke="#000000" stroke-width="1.0" width="85" x="918" y="48"/>
  </g>
  <text fill="#000000" font-decoration="none" font-family="Arial,Helvetica" font-size="18" font-weight="normal" text-anchor="middle" x="960" y="73">D1+com</text>
  <text fill="#000000" font-decoration="none" font-family="Arial,Helvetica" font-size="18" font-weight="normal" text-anchor="middle" x="960" y="91">plete</text>
  <path d="M 735 197 L 756 218 L 735 239 L 714 218 Z" fill="gray" stroke="gray" stroke-width="1.0" transform="translate(1 2)"/>
  <g id="node_30abcfdf-3a1c-4142-8cf0-347ddf7374be">
    <path d="M 735 197 L 756 218 L 735 239 L 714 218 Z" fill="url(#g1)" stroke="#000000" stroke-width="1.0"/>
    <path d=" M 727 218 L 743 218 M 735 210 L 735 226" fill="none" stroke="#000000" stroke-width="5.0"/>
  </g>
  <rect fill="gray" height="55" rx="8.25" ry="8.25" stroke="gray" stroke-width="1.0" transform="translate(1 2)" width="85" x="1165" y="285"/>
  <g id="node_9de6b0fc-b109-47fc-82dc-bc384b8521c0">
    <rect fill="url(#g1)" height="55" rx="8.25" ry="8.25" stroke="#000000" stroke-width="1.0" width="85" x="1165" y="285"/>
  </g>
  <text fill="#000000" font-decoration="none" font-family="Arial,Helvetica" font-size="18" font-weight="normal" text-anchor="middle" x="1208" y="310">E3+com</text>
  <text fill="#000000" font-decoration="none" font-family="Arial,Helvetica" font-size="18" font-weight="normal" text-anchor="middle" x="1208" y="328">plete</text>
  <path d="M 613 107 L 634 128 L 613 149 L 592 128 Z" fill="gray" stroke="gray" stroke-width="1.0" transform="translate(1 2)"/>
  <g id="node_edee8156-2602-4664-b7e9-ae6677b00668">
    <path d="M 613 107 L 634 128 L 613 149 L 592 128 Z" fill="url(#g1)" stroke="#000000" stroke-width="1.0"/>
    <path d=" M 619 118 L 607 139 M 607 118 L 619 139" fill="none" stroke="#000000" stroke-width="3.0"/>
  </g>
  <rect fill="gray" height="55" rx="8.25" ry="8.25" stroke="gray" stroke-width="1.0" transform="translate(1 2)" width="85" x="447" y="145"/>
  <g id="node_9c1d0c8a-c3dd-4c09-a58d-9b2f73393985">
    <rect fill="url(#g1)" height="55" rx="8.25" ry="8.25" stroke="#000000" stroke-width="1.0" width="85" x="447" y="145"/>
  </g>
  <text fill="#000000" font-decoration="none" font-family="Arial,Helvetica" font-size="18" font-weight="normal" text-anchor="middle" x="489" y="170">A2+com</text>
  <text fill="#000000" font-decoration="none" font-family="Arial,Helvetica" font-size="18" font-weight="normal" text-anchor="middle" x="489" y="188">plete</text>
  <path d="M 1331 342 L 1352 363 L 1331 384 L 1310 363 Z" fill="gray" stroke="gray" stroke-width="1.0" transform="translate(1 2)"/>
  <g id="node_e3d2953a-4df3-4a3d-97ba-925430749e3f">
    <path d="M 1331 342 L 1352 363 L 1331 384 L 1310 363 Z" fill="url(#g1)" stroke="#000000" stroke-width="1.0"/>
    <path d=" M 1323 363 L 1339 363 M 1331 355 L 1331 371" fill="none" stroke="#000000" stroke-width="5.0"/>
  </g>
  <path d="M 366 294 L 387 315 L 366 336 L 345 315 Z" fill="gray" stroke="gray" stroke-width="1.0" transform="translate(1 2)"/>
  <g id="node_7a183de2-d167-431b-a588-7f0fa7c7f403">
    <path d="M 366 294 L 387 315 L 366 336 L 345 315 Z" fill="url(#g1)" stroke="#000000" stroke-width="1.0"/>
    <path d=" M 358 315 L 374 315 M 366 307 L 366 323" fill="none" stroke="#000000" stroke-width="5.0"/>
  </g>
  <ellipse cx="1675" cy="218" fill="gray" rx="16" ry="16" stroke="gray" stroke-width="4.0" transform="translate(1 2)"/>
  <g id="node_54aa7820-935f-434d-8840-c2ea5200f2f8">
    <ellipse cx="1675" cy="218" fill="url(#g1)" rx="16" ry="16" stroke="#000000" stroke-width="4.0"/>
  </g>
  <text fill="#000000" font-decoration="none" font-family="Arial,Helvetica" font-size="18" font-weight="normal" text-anchor="middle" x="1675" y="256">End</text>
  <rect fill="gray" height="55" rx="8.25" ry="8.25" stroke="gray" stroke-width="1.0" transform="translate(1 2)" width="85" x="447" y="50"/>
  <g id="node_b27f6be8-ecab-4738-86fe-dfd49520d7fa">
    <rect fill="url(#g1)" height="55" rx="8.25" ry="8.25" stroke="#000000" stroke-width="1.0" width="85" x="447" y="50"/>
  </g>
  <text fill="#000000" font-decoration="none" font-family="Arial,Helvetica" font-size="18" font-weight="normal" text-anchor="middle" x="489" y="75">A3+com</text>
  <text fill="#000000" font-decoration="none" font-family="Arial,Helvetica" font-size="18" font-weight="normal" text-anchor="middle" x="489" y="93">plete</text>
  <rect fill="gray" height="55" rx="8.25" ry="8.25" stroke="gray" stroke-width="1.0" transform="translate(1 2)" width="85" x="1165" y="0"/>
  <g id="node_062ed6eb-db11-43f3-8663-55aacd1b18cb">
    <rect fill="url(#g1)" height="55" rx="8.25" ry="8.25" stroke="#000000" stroke-width="1.0" width="85" x="1165" y="0"/>
  </g>
  <text fill="#000000" font-decoration="none" font-family="Arial,Helvetica" font-size="18" font-weight="normal" text-anchor="middle" x="1207" y="25">D3+com</text>
  <text fill="#000000" font-decoration="none" font-family="Arial,Helvetica" font-size="18" font-weight="normal" text-anchor="middle" x="1207" y="43">plete</text>
  <rect fill="gray" height="55" rx="8.25" ry="8.25" stroke="gray" stroke-width="1.0" transform="translate(1 2)" width="85" x="918" y="190"/>
  <g id="node_d0e33f27-34da-42b4-94ef-7655a0f731c9">
    <rect fill="url(#g1)" height="55" rx="8.25" ry="8.25" stroke="#000000" stroke-width="1.0" width="85" x="918" y="190"/>
  </g>
  <text fill="#000000" font-decoration="none" font-family="Arial,Helvetica" font-size="18" font-weight="normal" text-anchor="middle" x="960" y="215">C1+com</text>
  <text fill="#000000" font-decoration="none" font-family="Arial,Helvetica" font-size="18" font-weight="normal" text-anchor="middle" x="960" y="233">plete</text>
  <rect fill="gray" height="55" rx="8.25" ry="8.25" stroke="gray" stroke-width="1.0" transform="translate(1 2)" width="85" x="1208" y="190"/>
  <g id="node_b74f3be7-f0ee-49de-be17-d17b95e76a77">
    <rect fill="url(#g1)" height="55" rx="8.25" ry="8.25" stroke="#000000" stroke-width="1.0" width="85" x="1208" y="190"/>
  </g>
  <text fill="#000000" font-decoration="none" font-family="Arial,Helvetica" font-size="18" font-weight="normal" text-anchor="middle" x="1250" y="215">C3+com</text>
  <text fill="#000000" font-decoration="none" font-family="Arial,Helvetica" font-size="18" font-weight="normal" text-anchor="middle" x="1250" y="233">plete</text>
  <rect fill="gray" height="55" rx="8.25" ry="8.25" stroke="gray" stroke-width="1.0" transform="translate(1 2)" width="85" x="694" y="100"/>
  <g id="node_37249298-0fed-4027-93a5-fffa5486a4b2">
    <rect fill="url(#g1)" height="55" rx="8.25" ry="8.25" stroke="#000000" stroke-width="1.0" width="85" x="694" y="100"/>
  </g>
  <text fill="#000000" font-decoration="none" font-family="Arial,Helvetica" font-size="18" font-weight="normal" text-anchor="middle" x="736" y="125">A4+com</text>
  <text fill="#000000" font-decoration="none" font-family="Arial,Helvetica" font-size="18" font-weight="normal" text-anchor="middle" x="736" y="143">plete</text>
  <path d="M 119 199 L 140 220 L 119 241 L 98 220 Z" fill="gray" stroke="gray" stroke-width="1.0" transform="translate(1 2)"/>
  <g id="node_101d4516-90a9-49c9-b1a8-04a6afaf29a8">
    <path d="M 119 199 L 140 220 L 119 241 L 98 220 Z" fill="url(#g1)" stroke="#000000" stroke-width="1.0"/>
    <path d=" M 111 220 L 127 220 M 119 212 L 119 228" fill="none" stroke="#000000" stroke-width="5.0"/>
  </g>
  <rect fill="gray" height="55" rx="8.25" ry="8.25" stroke="gray" stroke-width="1.0" transform="translate(1 2)" width="85" x="1165" y="95"/>
  <g id="node_35d26626-dc51-4b03-adcc-0563aa6e51bc">
    <rect fill="url(#g1)" height="55" rx="8.25" ry="8.25" stroke="#000000" stroke-width="1.0" width="85" x="1165" y="95"/>
  </g>
  <text fill="#000000" font-decoration="none" font-family="Arial,Helvetica" font-size="18" font-weight="normal" text-anchor="middle" x="1207" y="120">D2+com</text>
  <text fill="#000000" font-decoration="none" font-family="Arial,Helvetica" font-size="18" font-weight="normal" text-anchor="middle" x="1207" y="138">plete</text>
  <path d="M 1331 57 L 1352 78 L 1331 99 L 1310 78 Z" fill="gray" stroke="gray" stroke-width="1.0" transform="translate(1 2)"/>
  <g id="node_8faba4ea-7fb2-46ba-a9be-93037eac8551">
    <path d="M 1331 57 L 1352 78 L 1331 99 L 1310 78 Z" fill="url(#g1)" stroke="#000000" stroke-width="1.0"/>
    <path d=" M 1337 68 L 1325 89 M 1325 68 L 1337 89" fill="none" stroke="#000000" stroke-width="3.0"/>
  </g>
  <path d="M 1084 54 L 1105 75 L 1084 96 L 1063 75 Z" fill="gray" stroke="gray" stroke-width="1.0" transform="translate(1 2)"/>
  <g id="node_e03f8e7f-e295-4918-9955-0e33af2209c1">
    <path d="M 1084 54 L 1105 75 L 1084 96 L 1063 75 Z" fill="url(#g1)" stroke="#000000" stroke-width="1.0"/>
    <path d=" M 1090 65 L 1078 86 M 1078 65 L 1090 86" fill="none" stroke="#000000" stroke-width="3.0"/>
  </g>
  <rect fill="gray" height="55" rx="8.25" ry="8.25" stroke="gray" stroke-width="1.0" transform="translate(1 2)" width="85" x="447" y="335"/>
  <g id="node_77b879d2-20c3-4475-a74b-1d15e7ce13b0">
    <rect fill="url(#g1)" height="55" rx="8.25" ry="8.25" stroke="#000000" stroke-width="1.0" width="85" x="447" y="335"/>
  </g>
  <text fill="#000000" font-decoration="none" font-family="Arial,Helvetica" font-size="18" font-weight="normal" text-anchor="middle" x="490" y="360">B3+com</text>
  <text fill="#000000" font-decoration="none" font-family="Arial,Helvetica" font-size="18" font-weight="normal" text-anchor="middle" x="490" y="378">plete</text>
  <path d="M 1084 339 L 1105 360 L 1084 381 L 1063 360 Z" fill="gray" stroke="gray" stroke-width="1.0" transform="translate(1 2)"/>
  <g id="node_8c5fa4f5-208c-48eb-aed7-7336aa238c66">
    <path d="M 1084 339 L 1105 360 L 1084 381 L 1063 360 Z" fill="url(#g1)" stroke="#000000" stroke-width="1.0"/>
    <path d=" M 1076 360 L 1092 360 M 1084 352 L 1084 368" fill="none" stroke="#000000" stroke-width="5.0"/>
  </g>
  <rect fill="gray" height="55" rx="8.25" ry="8.25" stroke="gray" stroke-width="1.0" transform="translate(1 2)" width="85" x="200" y="98"/>
  <g id="node_135291f7-74b9-4ae8-8080-a15c7a794c18">
    <rect fill="url(#g1)" height="55" rx="8.25" ry="8.25" stroke="#000000" stroke-width="1.0" width="85" x="200" y="98"/>
  </g>
  <text fill="#000000" font-decoration="none" font-family="Arial,Helvetica" font-size="18" font-weight="normal" text-anchor="middle" x="242" y="123">A1+com</text>
  <text fill="#000000" font-decoration="none" font-family="Arial,Helvetica" font-size="18" font-weight="normal" text-anchor="middle" x="242" y="141">plete</text>
  <rect fill="gray" height="55" rx="8.25" ry="8.25" stroke="gray" stroke-width="1.0" transform="translate(1 2)" width="85" x="1514" y="190"/>
  <g id="node_fc234984-0802-4a09-baa6-caea58957907">
    <rect fill="url(#g1)" height="55" rx="8.25" ry="8.25" stroke="#000000" stroke-width="1.0" width="85" x="1514" y="190"/>
  </g>
  <text fill="#000000" font-decoration="none" font-family="Arial,Helvetica" font-size="18" font-weight="normal" text-anchor="middle" x="1557" y="215">END+co</text>
  <text fill="#000000" font-decoration="none" font-family="Arial,Helvetica" font-size="18" font-weight="normal" text-anchor="middle" x="1557" y="233">mplete</text>
  <rect fill="gray" height="55" rx="8.25" ry="8.25" stroke="gray" stroke-width="1.0" transform="translate(1 2)" width="85" x="1165" y="380"/>
  <g id="node_29f79db0-cca0-41f8-9e06-73746caf6405">
    <rect fill="url(#g1)" height="55" rx="8.25" ry="8.25" stroke="#000000" stroke-width="1.0" width="85" x="1165" y="380"/>
  </g>
  <text fill="#000000" font-decoration="none" font-family="Arial,Helvetica" font-size="18" font-weight="normal" text-anchor="middle" x="1208" y="405">E2+com</text>
  <text fill="#000000" font-decoration="none" font-family="Arial,Helvetica" font-size="18" font-weight="normal" text-anchor="middle" x="1208" y="423">plete</text>
  <path d="M 366 104 L 387 125 L 366 146 L 345 125 Z" fill="gray" stroke="gray" stroke-width="1.0" transform="translate(1 2)"/>
  <g id="node_23adb3a5-41f1-4b0a-9cb4-e6f36219fc1e">
    <path d="M 366 104 L 387 125 L 366 146 L 345 125 Z" fill="url(#g1)" stroke="#000000" stroke-width="1.0"/>
    <path d=" M 372 115 L 360 136 M 360 115 L 372 136" fill="none" stroke="#000000" stroke-width="3.0"/>
  </g>
  <ellipse cx="22" cy="220" fill="gray" rx="16" ry="16" stroke="gray" stroke-width="1.0" transform="translate(1 2)"/>
  <g id="node_580f23b6-db61-4f4a-991f-d6bc11076ee1">
    <ellipse cx="22" cy="220" fill="url(#g1)" rx="16" ry="16" stroke="#000000" stroke-width="1.0"/>
  </g>
  <text fill="#000000" font-decoration="none" font-family="Arial,Helvetica" font-size="18" font-weight="normal" text-anchor="middle" x="22" y="259">Start</text>
  <path d="M 837 197 L 858 218 L 837 239 L 816 218 Z" fill="gray" stroke="gray" stroke-width="1.0" transform="translate(1 2)"/>
  <g id="node_c6b602b8-94ab-4756-b77b-440683adedc5">
    <path d="M 837 197 L 858 218 L 837 239 L 816 218 Z" fill="url(#g1)" stroke="#000000" stroke-width="1.0"/>
    <path d=" M 829 218 L 845 218 M 837 210 L 837 226" fill="none" stroke="#000000" stroke-width="5.0"/>
  </g>
  <rect fill="gray" height="55" rx="8.25" ry="8.25" stroke="gray" stroke-width="1.0" transform="translate(1 2)" width="85" x="200" y="288"/>
  <g id="node_deccc4cd-dd65-4001-a0f5-56bdb7a13c70">
    <rect fill="url(#g1)" height="55" rx="8.25" ry="8.25" stroke="#000000" stroke-width="1.0" width="85" x="200" y="288"/>
  </g>
  <text fill="#000000" font-decoration="none" font-family="Arial,Helvetica" font-size="18" font-weight="normal" text-anchor="middle" x="243" y="313">B1+com</text>
  <text fill="#000000" font-decoration="none" font-family="Arial,Helvetica" font-size="18" font-weight="normal" text-anchor="middle" x="243" y="331">plete</text>
  <path d="M 1433 197 L 1454 218 L 1433 239 L 1412 218 Z" fill="gray" stroke="gray" stroke-width="1.0" transform="translate(1 2)"/>
  <g id="node_01e743d3-d934-4cc0-b2bb-d301e077d4a9">
    <path d="M 1433 197 L 1454 218 L 1433 239 L 1412 218 Z" fill="url(#g1)" stroke="#000000" stroke-width="1.0"/>
    <path d=" M 1425 218 L 1441 218 M 1433 210 L 1433 226" fill="none" stroke="#000000" stroke-width="5.0"/>
  </g>
  <rect fill="gray" height="55" rx="8.25" ry="8.25" stroke="gray" stroke-width="1.0" transform="translate(1 2)" width="85" x="1063" y="190"/>
  <g id="node_73fb4fcd-a337-43dd-ae8d-4abbfbc456f2">
    <rect fill="url(#g1)" height="55" rx="8.25" ry="8.25" stroke="#000000" stroke-width="1.0" width="85" x="1063" y="190"/>
  </g>
  <text fill="#000000" font-decoration="none" font-family="Arial,Helvetica" font-size="18" font-weight="normal" text-anchor="middle" x="1105" y="215">C2+com</text>
  <text fill="#000000" font-decoration="none" font-family="Arial,Helvetica" font-size="18" font-weight="normal" text-anchor="middle" x="1105" y="233">plete</text>
  <g id="node_8620748b-e280-4dfc-bbb2-2adca88c034d">
    <path d="M 447.5 268.0 L 437.5 273.0 L 440.0 268.0 L 437.5 263.0 z" fill="#000000" stroke="#000000" stroke-width="1.0"/>
    <path d="M 388.0 315.5 L 407.5 315.5 Q 417.5 315.5 417.5 305.5 L 417.5 278.0 Q 417.5 268.0 427.5 268.0 L 448.0 268.0" fill="none" stroke="#000000" stroke-width="1.0"/>
  </g>
  <g id="node_79031c2b-de3c-4ea6-85b2-60cc980b4852">
    <path d="M 447.5 78.0 L 437.5 83.0 L 440.0 78.0 L 437.5 73.0 z" fill="#000000" stroke="#000000" stroke-width="1.0"/>
    <path d="M 388.0 125.5 L 407.5 125.5 Q 417.5 125.5 417.5 115.5 L 417.5 88.0 Q 417.5 78.0 427.5 78.0 L 448.0 78.0" fill="none" stroke="#000000" stroke-width="1.0"/>
  </g>
  <g id="node_998eb745-c9df-42ca-bf47-da628c70d834">
    <path d="M 1165.5 313.0 L 1155.5 318.0 L 1158.0 313.0 L 1155.5 308.0 z" fill="#000000" stroke="#000000" stroke-width="1.0"/>
    <path d="M 1106.0 360.5 L 1125.5 360.5 Q 1135.5 360.5 1135.5 350.5 L 1135.5 323.0 Q 1135.5 313.0 1145.5 313.0 L 1166.0 313.0" fill="none" stroke="#000000" stroke-width="1.0"/>
  </g>
  <g id="node_d6f29737-c8e7-44fa-bfec-dff84ce5cda2">
    <path d="M 200.5 125.5 L 190.5 130.5 L 193.0 125.5 L 190.5 120.5 z" fill="#000000" stroke="#000000" stroke-width="1.0"/>
    <path d="M 141.0 220.5 L 160.5 220.5 Q 170.5 220.5 170.5 210.5 L 170.5 135.5 Q 170.5 125.5 180.5 125.5 L 201.0 125.5" fill="none" stroke="#000000" stroke-width="1.0"/>
  </g>
  <g id="node_08f9fbf0-2fbb-42d9-b295-b595d4edcd57">
    <path d="M 1412.5 218.0 L 1402.5 223.0 L 1405.0 218.0 L 1402.5 213.0 z" fill="#000000" stroke="#000000" stroke-width="1.0"/>
    <path d="M 1353.5 363.0 L 1372.5 363.0 Q 1382.5 363.0 1382.5 353.0 L 1382.5 228.0 Q 1382.5 218.0 1392.5 218.0 L 1413.0 218.0" fill="none" stroke="#000000" stroke-width="1.0"/>
  </g>
  <g id="node_27cebf18-e700-4af9-b95d-7ea672620e9a">
    <path d="M 1165.5 28.0 L 1155.5 33.0 L 1158.0 28.0 L 1155.5 23.0 z" fill="#000000" stroke="#000000" stroke-width="1.0"/>
    <path d="M 1106.0 75.5 L 1125.5 75.5 Q 1135.5 75.5 1135.5 65.5 L 1135.5 38.0 Q 1135.5 28.0 1145.5 28.0 L 1166.0 28.0" fill="none" stroke="#000000" stroke-width="1.0"/>
  </g>
  <g id="node_adb854b4-64a0-4854-8309-bca3555c76b0">
    <path d="M 918.5 75.5 L 908.5 80.5 L 911.0 75.5 L 908.5 70.5 z" fill="#000000" stroke="#000000" stroke-width="1.0"/>
    <path d="M 859.5 218.0 L 878.5 218.0 Q 888.5 218.0 888.5 208.0 L 888.5 85.5 Q 888.5 75.5 898.5 75.5 L 919.0 75.5" fill="none" stroke="#000000" stroke-width="1.0"/>
  </g>
  <g id="node_0d340f51-6672-436c-b98c-4d9fa41699c4">
    <path d="M 1659.5 218.0 L 1649.5 223.0 L 1652.0 218.0 L 1649.5 213.0 z" fill="#000000" stroke="#000000" stroke-width="1.0"/>
    <path d="M 1600.5 218.0 L 1619.5 218.0 Q 1629.5 218.0 1629.5 218.0 L 1629.5 218.0 L 1660.0 218.0" fill="none" stroke="#000000" stroke-width="1.0"/>
  </g>
  <g id="node_4a103279-ee8d-490f-bc9e-f20fbae92bdd">
    <path d="M 1310.5 363.0 L 1300.5 368.0 L 1303.0 363.0 L 1300.5 358.0 z" fill="#000000" stroke="#000000" stroke-width="1.0"/>
    <path d="M 1251.5 313.0 L 1270.5 313.0 Q 1280.5 313.0 1280.5 323.0 L 1280.5 353.0 Q 1280.5 363.0 1290.5 363.0 L 1311.0 363.0" fill="none" stroke="#000000" stroke-width="1.0"/>
  </g>
  <g id="node_8346db10-65bf-498a-9f3e-9331e632640e">
    <path d="M 694.5 128.0 L 684.5 133.0 L 687.0 128.0 L 684.5 123.0 z" fill="#000000" stroke="#000000" stroke-width="1.0"/>
    <path d="M 635.5 128.0 L 654.5 128.0 Q 664.5 128.0 664.5 128.0 L 664.5 128.0 L 695.0 128.0" fill="none" stroke="#000000" stroke-width="1.0"/>
  </g>
  <g id="node_6401afcc-a482-4e33-b6bb-d03c295cbf16">
    <path d="M 592.5 318.0 L 582.5 323.0 L 585.0 318.0 L 582.5 313.0 z" fill="#000000" stroke="#000000" stroke-width="1.0"/>
    <path d="M 533.5 268.0 L 552.5 268.0 Q 562.5 268.0 562.5 278.0 L 562.5 308.0 Q 562.5 318.0 572.5 318.0 L 593.0 318.0" fill="none" stroke="#000000" stroke-width="1.0"/>
  </g>
  <g id="node_4bdf2df7-1683-4da8-854c-0bf137177245">
    <path d="M 1063.5 218.0 L 1053.5 223.0 L 1056.0 218.0 L 1053.5 213.0 z" fill="#000000" stroke="#000000" stroke-width="1.0"/>
    <path d="M 1004.5 218.0 L 1023.5 218.0 Q 1033.5 218.0 1033.5 218.0 L 1033.5 218.0 L 1064.0 218.0" fill="none" stroke="#000000" stroke-width="1.0"/>
  </g>
  <g id="node_51b47122-d480-448f-9220-759bf579b076">
    <path d="M 918.5 218.0 L 908.5 223.0 L 911.0 218.0 L 908.5 213.0 z" fill="#000000" stroke="#000000" stroke-width="1.0"/>
    <path d="M 859.5 218.0 L 878.5 218.0 Q 888.5 218.0 888.5 218.0 L 888.5 218.0 L 919.0 218.0" fill="none" stroke="#000000" stroke-width="1.0"/>
  </g>
  <g id="node_eb07634e-c4ee-4101-8561-625d81627c2f">
    <path d="M 1514.5 218.0 L 1504.5 223.0 L 1507.0 218.0 L 1504.5 213.0 z" fill="#000000" stroke="#000000" stroke-width="1.0"/>
    <path d="M 1455.5 218.0 L 1474.5 218.0 Q 1484.5 218.0 1484.5 218.0 L 1484.5 218.0 L 1515.0 218.0" fill="none" stroke="#000000" stroke-width="1.0"/>
  </g>
  <g id="node_ddd2cdd0-9d89-4cd1-96fd-21c6aabb4300">
    <path d="M 1165.5 408.0 L 1155.5 413.0 L 1158.0 408.0 L 1155.5 403.0 z" fill="#000000" stroke="#000000" stroke-width="1.0"/>
    <path d="M 1106.0 360.5 L 1125.5 360.5 Q 1135.5 360.5 1135.5 370.5 L 1135.5 398.0 Q 1135.5 408.0 1145.5 408.0 L 1166.0 408.0" fill="none" stroke="#000000" stroke-width="1.0"/>
  </g>
  <g id="node_68627840-2023-4e9c-bb7b-8117be6fa1b6">
    <path d="M 592.5 128.0 L 582.5 133.0 L 585.0 128.0 L 582.5 123.0 z" fill="#000000" stroke="#000000" stroke-width="1.0"/>
    <path d="M 533.5 78.0 L 552.5 78.0 Q 562.5 78.0 562.5 88.0 L 562.5 118.0 Q 562.5 128.0 572.5 128.0 L 593.0 128.0" fill="none" stroke="#000000" stroke-width="1.0"/>
  </g>
  <g id="node_233719cb-5af2-41f6-8e93-76dcee84290f">
    <path d="M 1310.5 363.0 L 1300.5 368.0 L 1303.0 363.0 L 1300.5 358.0 z" fill="#000000" stroke="#000000" stroke-width="1.0"/>
    <path d="M 1251.5 408.0 L 1270.5 408.0 Q 1280.5 408.0 1280.5 398.0 L 1280.5 373.0 Q 1280.5 363.0 1290.5 363.0 L 1311.0 363.0" fill="none" stroke="#000000" stroke-width="1.0"/>
  </g>
  <g id="node_4d3d91c5-347c-4538-9404-9ef98fab0c42">
    <path d="M 200.5 315.5 L 190.5 320.5 L 193.0 315.5 L 190.5 310.5 z" fill="#000000" stroke="#000000" stroke-width="1.0"/>
    <path d="M 141.0 220.5 L 160.5 220.5 Q 170.5 220.5 170.5 230.5 L 170.5 305.5 Q 170.5 315.5 180.5 315.5 L 201.0 315.5" fill="none" stroke="#000000" stroke-width="1.0"/>
  </g>
  <g id="node_68b00488-f0c0-4ec1-a39f-28e420c76cd2">
    <path d="M 592.5 128.0 L 582.5 133.0 L 585.0 128.0 L 582.5 123.0 z" fill="#000000" stroke="#000000" stroke-width="1.0"/>
    <path d="M 533.5 173.0 L 552.5 173.0 Q 562.5 173.0 562.5 163.0 L 562.5 138.0 Q 562.5 128.0 572.5 128.0 L 593.0 128.0" fill="none" stroke="#000000" stroke-width="1.0"/>
  </g>
  <g id="node_c3cbbb6a-0d5a-4997-926c-2606c58f4cde">
    <path d="M 1310.5 78.0 L 1300.5 83.0 L 1303.0 78.0 L 1300.5 73.0 z" fill="#000000" stroke="#000000" stroke-width="1.0"/>
    <path d="M 1251.5 28.0 L 1270.5 28.0 Q 1280.5 28.0 1280.5 38.0 L 1280.5 68.0 Q 1280.5 78.0 1290.5 78.0 L 1311.0 78.0" fill="none" stroke="#000000" stroke-width="1.0"/>
  </g>
  <g id="node_aa0ef409-7a5d-4abd-ac7e-93dba49c2e1c">
    <path d="M 735.5 197.0 L 730.5 187.0 L 735.5 189.5 L 740.5 187.0 z" fill="#000000" stroke="#000000" stroke-width="1.0"/>
    <path d="M 735.5 156.5 L 735.5 166.375 Q 735.5 176.25 735.5 186.25 L 735.5 197.5" fill="none" stroke="#000000" stroke-width="1.0"/>
  </g>
  <g id="node_540f3a39-b7e5-407b-9bd7-3077dd1f1b24">
    <path d="M 816.5 218.0 L 806.5 223.0 L 809.0 218.0 L 806.5 213.0 z" fill="#000000" stroke="#000000" stroke-width="1.0"/>
    <path d="M 757.5 218.0 L 776.5 218.0 Q 786.5 218.0 786.5 218.0 L 786.5 218.0 L 817.0 218.0" fill="none" stroke="#000000" stroke-width="1.0"/>
  </g>
  <g id="node_49e03b4e-dd70-45e7-9a5d-6b46d6a394a5">
    <path d="M 99.0 220.5 L 89.0 225.5 L 91.5 220.5 L 89.0 215.5 z" fill="#000000" stroke="#000000" stroke-width="1.0"/>
    <path d="M 39.492185591719476 220.5 L 58.5 220.5 Q 68.5 220.5 68.5 220.5 L 68.5 220.5 L 99.5 220.5" fill="none" stroke="#000000" stroke-width="1.0"/>
  </g>
  <g id="node_3750f965-fdfc-4cd9-93c1-7fd728d3cac9">
    <path d="M 1208.5 218.0 L 1198.5 223.0 L 1201.0 218.0 L 1198.5 213.0 z" fill="#000000" stroke="#000000" stroke-width="1.0"/>
    <path d="M 1149.5 218.0 L 1168.5 218.0 Q 1178.5 218.0 1178.5 218.0 L 1178.5 218.0 L 1209.0 218.0" fill="none" stroke="#000000" stroke-width="1.0"/>
  </g>
  <g id="node_5c32f558-e9fb-4ace-a6ff-0da79c67a316">
    <path d="M 1412.5 218.0 L 1402.5 223.0 L 1405.0 218.0 L 1402.5 213.0 z" fill="#000000" stroke="#000000" stroke-width="1.0"/>
    <path d="M 1353.5 78.0 L 1372.5 78.0 Q 1382.5 78.0 1382.5 88.0 L 1382.5 208.0 Q 1382.5 218.0 1392.5 218.0 L 1413.0 218.0" fill="none" stroke="#000000" stroke-width="1.0"/>
  </g>
  <g id="node_b0688084-fc7c-4ace-a93e-fc509688c774">
    <path d="M 1165.5 123.0 L 1155.5 128.0 L 1158.0 123.0 L 1155.5 118.0 z" fill="#000000" stroke="#000000" stroke-width="1.0"/>
    <path d="M 1106.0 75.5 L 1125.5 75.5 Q 1135.5 75.5 1135.5 85.5 L 1135.5 113.0 Q 1135.5 123.0 1145.5 123.0 L 1166.0 123.0" fill="none" stroke="#000000" stroke-width="1.0"/>
  </g>
  <g id="node_89ee98af-8062-461e-8eac-a76db4d07f27">
    <path d="M 1064.0 75.5 L 1054.0 80.5 L 1056.5 75.5 L 1054.0 70.5 z" fill="#000000" stroke="#000000" stroke-width="1.0"/>
    <path d="M 1004.5 75.5 L 1023.5 75.5 Q 1033.5 75.5 1033.5 75.5 L 1033.5 75.5 L 1064.5 75.5" fill="none" stroke="#000000" stroke-width="1.0"/>
  </g>
  <g id="node_edcf0d80-3cc1-4b5a-bd11-aa6178b44d1b">
    <path d="M 592.5 318.0 L 582.5 323.0 L 585.0 318.0 L 582.5 313.0 z" fill="#000000" stroke="#000000" stroke-width="1.0"/>
    <path d="M 533.5 363.0 L 552.5 363.0 Q 562.5 363.0 562.5 353.0 L 562.5 328.0 Q 562.5 318.0 572.5 318.0 L 593.0 318.0" fill="none" stroke="#000000" stroke-width="1.0"/>
  </g>
  <g id="node_fa013d47-71c7-44d4-88ab-954362ef7bb3">
    <path d="M 447.5 173.0 L 437.5 178.0 L 440.0 173.0 L 437.5 168.0 z" fill="#000000" stroke="#000000" stroke-width="1.0"/>
    <path d="M 388.0 125.5 L 407.5 125.5 Q 417.5 125.5 417.5 135.5 L 417.5 163.0 Q 417.5 173.0 427.5 173.0 L 448.0 173.0" fill="none" stroke="#000000" stroke-width="1.0"/>
  </g>
  <g id="node_fd54828a-5ff7-4991-a676-7f920223997a">
    <path d="M 447.5 363.0 L 437.5 368.0 L 440.0 363.0 L 437.5 358.0 z" fill="#000000" stroke="#000000" stroke-width="1.0"/>
    <path d="M 388.0 315.5 L 407.5 315.5 Q 417.5 315.5 417.5 325.5 L 417.5 353.0 Q 417.5 363.0 427.5 363.0 L 448.0 363.0" fill="none" stroke="#000000" stroke-width="1.0"/>
  </g>
  <g id="node_228c9226-aa1f-4323-98ae-667c469c30cd">
    <path d="M 346.0 315.5 L 336.0 320.5 L 338.5 315.5 L 336.0 310.5 z" fill="#000000" stroke="#000000" stroke-width="1.0"/>
    <path d="M 286.5 315.5 L 305.5 315.5 Q 315.5 315.5 315.5 315.5 L 315.5 315.5 L 346.5 315.5" fill="none" stroke="#000000" stroke-width="1.0"/>
  </g>
  <g id="node_187fd183-fbdd-49ff-b500-6fd793396f97">
    <path d="M 714.5 218.0 L 704.5 223.0 L 707.0 218.0 L 704.5 213.0 z" fill="#000000" stroke="#000000" stroke-width="1.0"/>
    <path d="M 635.5 318.0 L 664.5 318.0 Q 674.5 318.0 674.5 308.0 L 674.5 228.0 Q 674.5 218.0 684.5 218.0 L 715.0 218.0" fill="none" stroke="#000000" stroke-width="1.0"/>
  </g>
  <g id="node_2040003c-5609-49ad-8d86-c15b51e0478b">
    <path d="M 1310.5 78.0 L 1300.5 83.0 L 1303.0 78.0 L 1300.5 73.0 z" fill="#000000" stroke="#000000" stroke-width="1.0"/>
    <path d="M 1251.5 123.0 L 1270.5 123.0 Q 1280.5 123.0 1280.5 113.0 L 1280.5 88.0 Q 1280.5 78.0 1290.5 78.0 L 1311.0 78.0" fill="none" stroke="#000000" stroke-width="1.0"/>
  </g>
  <g id="node_fb49aa9e-0d7f-41e6-b0d3-799f899de7ee">
    <path d="M 918.5 360.5 L 908.5 365.5 L 911.0 360.5 L 908.5 355.5 z" fill="#000000" stroke="#000000" stroke-width="1.0"/>
    <path d="M 859.5 218.0 L 878.5 218.0 Q 888.5 218.0 888.5 228.0 L 888.5 350.5 Q 888.5 360.5 898.5 360.5 L 919.0 360.5" fill="none" stroke="#000000" stroke-width="1.0"/>
  </g>
  <g id="node_68c64c2c-b7ab-46a9-93f0-2b61b700c61c">
    <path d="M 346.0 125.5 L 336.0 130.5 L 338.5 125.5 L 336.0 120.5 z" fill="#000000" stroke="#000000" stroke-width="1.0"/>
    <path d="M 286.5 125.5 L 305.5 125.5 Q 315.5 125.5 315.5 125.5 L 315.5 125.5 L 346.5 125.5" fill="none" stroke="#000000" stroke-width="1.0"/>
  </g>
  <g id="node_7ba2421c-4131-49b0-953f-32ec8b43ed96">
    <path d="M 1412.5 218.0 L 1402.5 223.0 L 1405.0 218.0 L 1402.5 213.0 z" fill="#000000" stroke="#000000" stroke-width="1.0"/>
    <path d="M 1294.5 218.0 L 1343.0 218.0 Q 1353.0 218.0 1353.0 218.0 L 1353.0 218.0 L 1413.0 218.0" fill="none" stroke="#000000" stroke-width="1.0"/>
  </g>
  <g id="node_fab7feb1-a946-4bff-858d-417124bf125f">
    <path d="M 1064.0 360.5 L 1054.0 365.5 L 1056.5 360.5 L 1054.0 355.5 z" fill="#000000" stroke="#000000" stroke-width="1.0"/>
    <path d="M 1004.5 360.5 L 1023.5 360.5 Q 1033.5 360.5 1033.5 360.5 L 1033.5 360.5 L 1064.5 360.5" fill="none" stroke="#000000" stroke-width="1.0"/>
  </g>
</svg>
