<?xml version="1.0" encoding="WINDOWS-1252" standalone="no"?>
<svg xmlns="http://www.w3.org/2000/svg" xmlns:xlink="http://www.w3.org/1999/xlink" height="441" version="1.1" viewBox="0 0 1710 441" width="1710">
  <defs>
    <linearGradient id="g1" x1="0%" x2="0%" y1="0%" y2="100%">
      <stop offset="0%" style="stop-color:#FFFFFF"/>
      <stop offset="100%" style="stop-color:#cfcfcf"/>
    </linearGradient>
  </defs>
  <rect fill="gray" height="55" rx="8.25" ry="8.25" stroke="gray" stroke-width="1.0" transform="translate(1 2)" width="85" x="454" y="240"/>
  <g id="node_8d5a1583-6b62-488a-ba95-66bb8c830c5d">
    <rect fill="url(#g1)" height="55" rx="8.25" ry="8.25" stroke="#000000" stroke-width="1.0" width="85" x="454" y="240"/>
  </g>
  <text fill="#000000" font-decoration="none" font-family="Arial,Helvetica" font-size="24" font-weight="normal" text-anchor="middle" x="496" y="277">B2</text>
  <path d="M 620 297 L 641 318 L 620 339 L 599 318 Z" fill="gray" stroke="gray" stroke-width="1.0" transform="translate(1 2)"/>
  <g id="node_79b1e21a-0475-44a4-8c6f-9bf5aed01f82">
    <path d="M 620 297 L 641 318 L 620 339 L 599 318 Z" fill="url(#g1)" stroke="#000000" stroke-width="1.0"/>
    <path d=" M 612 318 L 628 318 M 620 310 L 620 326" fill="none" stroke="#000000" stroke-width="5.0"/>
  </g>
  <rect fill="gray" height="55" rx="8.25" ry="8.25" stroke="gray" stroke-width="1.0" transform="translate(1 2)" width="85" x="925" y="333"/>
  <g id="node_9b0e5fbf-8976-4c33-9239-9dfc3d4bf494">
    <rect fill="url(#g1)" height="55" rx="8.25" ry="8.25" stroke="#000000" stroke-width="1.0" width="85" x="925" y="333"/>
  </g>
  <text fill="#000000" font-decoration="none" font-family="Arial,Helvetica" font-size="24" font-weight="normal" text-anchor="middle" x="967" y="370">E1</text>
  <rect fill="gray" height="55" rx="8.25" ry="8.25" stroke="gray" stroke-width="1.0" transform="translate(1 2)" width="85" x="925" y="48"/>
  <g id="node_55326bd8-7d3c-41c7-ba1c-6820917a6060">
    <rect fill="url(#g1)" height="55" rx="8.25" ry="8.25" stroke="#000000" stroke-width="1.0" width="85" x="925" y="48"/>
  </g>
  <text fill="#000000" font-decoration="none" font-family="Arial,Helvetica" font-size="24" font-weight="normal" text-anchor="middle" x="968" y="85">D1</text>
  <path d="M 742 197 L 763 218 L 742 239 L 721 218 Z" fill="gray" stroke="gray" stroke-width="1.0" transform="translate(1 2)"/>
  <g id="node_30abcfdf-3a1c-4142-8cf0-347ddf7374be">
    <path d="M 742 197 L 763 218 L 742 239 L 721 218 Z" fill="url(#g1)" stroke="#000000" stroke-width="1.0"/>
    <path d=" M 734 218 L 750 218 M 742 210 L 742 226" fill="none" stroke="#000000" stroke-width="5.0"/>
  </g>
  <rect fill="gray" height="55" rx="8.25" ry="8.25" stroke="gray" stroke-width="1.0" transform="translate(1 2)" width="85" x="1172" y="285"/>
  <g id="node_9de6b0fc-b109-47fc-82dc-bc384b8521c0">
    <rect fill="url(#g1)" height="55" rx="8.25" ry="8.25" stroke="#000000" stroke-width="1.0" width="85" x="1172" y="285"/>
  </g>
  <text fill="#000000" font-decoration="none" font-family="Arial,Helvetica" font-size="24" font-weight="normal" text-anchor="middle" x="1214" y="322">E3</text>
  <path d="M 620 107 L 641 128 L 620 149 L 599 128 Z" fill="gray" stroke="gray" stroke-width="1.0" transform="translate(1 2)"/>
  <g id="node_edee8156-2602-4664-b7e9-ae6677b00668">
    <path d="M 620 107 L 641 128 L 620 149 L 599 128 Z" fill="url(#g1)" stroke="#000000" stroke-width="1.0"/>
    <path d=" M 626 118 L 614 139 M 614 118 L 626 139" fill="none" stroke="#000000" stroke-width="3.0"/>
  </g>
  <rect fill="gray" height="55" rx="8.25" ry="8.25" stroke="gray" stroke-width="1.0" transform="translate(1 2)" width="85" x="454" y="145"/>
  <g id="node_9c1d0c8a-c3dd-4c09-a58d-9b2f73393985">
    <rect fill="url(#g1)" height="55" rx="8.25" ry="8.25" stroke="#000000" stroke-width="1.0" width="85" x="454" y="145"/>
  </g>
  <text fill="#000000" font-decoration="none" font-family="Arial,Helvetica" font-size="24" font-weight="normal" text-anchor="middle" x="497" y="182">A2</text>
  <path d="M 1338 342 L 1359 363 L 1338 384 L 1317 363 Z" fill="gray" stroke="gray" stroke-width="1.0" transform="translate(1 2)"/>
  <g id="node_e3d2953a-4df3-4a3d-97ba-925430749e3f">
    <path d="M 1338 342 L 1359 363 L 1338 384 L 1317 363 Z" fill="url(#g1)" stroke="#000000" stroke-width="1.0"/>
    <path d=" M 1330 363 L 1346 363 M 1338 355 L 1338 371" fill="none" stroke="#000000" stroke-width="5.0"/>
  </g>
  <path d="M 373 294 L 394 315 L 373 336 L 352 315 Z" fill="gray" stroke="gray" stroke-width="1.0" transform="translate(1 2)"/>
  <g id="node_7a183de2-d167-431b-a588-7f0fa7c7f403">
    <path d="M 373 294 L 394 315 L 373 336 L 352 315 Z" fill="url(#g1)" stroke="#000000" stroke-width="1.0"/>
    <path d=" M 365 315 L 381 315 M 373 307 L 373 323" fill="none" stroke="#000000" stroke-width="5.0"/>
  </g>
  <ellipse cx="1682" cy="218" fill="gray" rx="16" ry="16" stroke="gray" stroke-width="4.0" transform="translate(1 2)"/>
  <g id="node_54aa7820-935f-434d-8840-c2ea5200f2f8">
    <ellipse cx="1682" cy="218" fill="url(#g1)" rx="16" ry="16" stroke="#000000" stroke-width="4.0"/>
  </g>
  <text fill="#000000" font-decoration="none" font-family="Arial,Helvetica" font-size="24" font-weight="normal" text-anchor="middle" x="1682" y="259">End</text>
  <rect fill="gray" height="55" rx="8.25" ry="8.25" stroke="gray" stroke-width="1.0" transform="translate(1 2)" width="85" x="454" y="50"/>
  <g id="node_b27f6be8-ecab-4738-86fe-dfd49520d7fa">
    <rect fill="url(#g1)" height="55" rx="8.25" ry="8.25" stroke="#000000" stroke-width="1.0" width="85" x="454" y="50"/>
  </g>
  <text fill="#000000" font-decoration="none" font-family="Arial,Helvetica" font-size="24" font-weight="normal" text-anchor="middle" x="497" y="87">A3</text>
  <rect fill="gray" height="55" rx="8.25" ry="8.25" stroke="gray" stroke-width="1.0" transform="translate(1 2)" width="85" x="1172" y="0"/>
  <g id="node_062ed6eb-db11-43f3-8663-55aacd1b18cb">
    <rect fill="url(#g1)" height="55" rx="8.25" ry="8.25" stroke="#000000" stroke-width="1.0" width="85" x="1172" y="0"/>
  </g>
  <text fill="#000000" font-decoration="none" font-family="Arial,Helvetica" font-size="24" font-weight="normal" text-anchor="middle" x="1215" y="37">D3</text>
  <rect fill="gray" height="55" rx="8.25" ry="8.25" stroke="gray" stroke-width="1.0" transform="translate(1 2)" width="85" x="925" y="190"/>
  <g id="node_d0e33f27-34da-42b4-94ef-7655a0f731c9">
    <rect fill="url(#g1)" height="55" rx="8.25" ry="8.25" stroke="#000000" stroke-width="1.0" width="85" x="925" y="190"/>
  </g>
  <text fill="#000000" font-decoration="none" font-family="Arial,Helvetica" font-size="24" font-weight="normal" text-anchor="middle" x="968" y="227">C1</text>
  <rect fill="gray" height="55" rx="8.25" ry="8.25" stroke="gray" stroke-width="1.0" transform="translate(1 2)" width="85" x="1215" y="190"/>
  <g id="node_b74f3be7-f0ee-49de-be17-d17b95e76a77">
    <rect fill="url(#g1)" height="55" rx="8.25" ry="8.25" stroke="#000000" stroke-width="1.0" width="85" x="1215" y="190"/>
  </g>
  <text fill="#000000" font-decoration="none" font-family="Arial,Helvetica" font-size="24" font-weight="normal" text-anchor="middle" x="1258" y="227">C3</text>
  <rect fill="gray" height="55" rx="8.25" ry="8.25" stroke="gray" stroke-width="1.0" transform="translate(1 2)" width="85" x="701" y="100"/>
  <g id="node_37249298-0fed-4027-93a5-fffa5486a4b2">
    <rect fill="url(#g1)" height="55" rx="8.25" ry="8.25" stroke="#000000" stroke-width="1.0" width="85" x="701" y="100"/>
  </g>
  <text fill="#000000" font-decoration="none" font-family="Arial,Helvetica" font-size="24" font-weight="normal" text-anchor="middle" x="744" y="137">A4</text>
  <path d="M 126 199 L 147 220 L 126 241 L 105 220 Z" fill="gray" stroke="gray" stroke-width="1.0" transform="translate(1 2)"/>
  <g id="node_101d4516-90a9-49c9-b1a8-04a6afaf29a8">
    <path d="M 126 199 L 147 220 L 126 241 L 105 220 Z" fill="url(#g1)" stroke="#000000" stroke-width="1.0"/>
    <path d=" M 118 220 L 134 220 M 126 212 L 126 228" fill="none" stroke="#000000" stroke-width="5.0"/>
  </g>
  <rect fill="gray" height="55" rx="8.25" ry="8.25" stroke="gray" stroke-width="1.0" transform="translate(1 2)" width="85" x="1172" y="95"/>
  <g id="node_35d26626-dc51-4b03-adcc-0563aa6e51bc">
    <rect fill="url(#g1)" height="55" rx="8.25" ry="8.25" stroke="#000000" stroke-width="1.0" width="85" x="1172" y="95"/>
  </g>
  <text fill="#000000" font-decoration="none" font-family="Arial,Helvetica" font-size="24" font-weight="normal" text-anchor="middle" x="1215" y="132">D2</text>
  <path d="M 1338 57 L 1359 78 L 1338 99 L 1317 78 Z" fill="gray" stroke="gray" stroke-width="1.0" transform="translate(1 2)"/>
  <g id="node_8faba4ea-7fb2-46ba-a9be-93037eac8551">
    <path d="M 1338 57 L 1359 78 L 1338 99 L 1317 78 Z" fill="url(#g1)" stroke="#000000" stroke-width="1.0"/>
    <path d=" M 1344 68 L 1332 89 M 1332 68 L 1344 89" fill="none" stroke="#000000" stroke-width="3.0"/>
  </g>
  <path d="M 1091 54 L 1112 75 L 1091 96 L 1070 75 Z" fill="gray" stroke="gray" stroke-width="1.0" transform="translate(1 2)"/>
  <g id="node_e03f8e7f-e295-4918-9955-0e33af2209c1">
    <path d="M 1091 54 L 1112 75 L 1091 96 L 1070 75 Z" fill="url(#g1)" stroke="#000000" stroke-width="1.0"/>
    <path d=" M 1097 65 L 1085 86 M 1085 65 L 1097 86" fill="none" stroke="#000000" stroke-width="3.0"/>
  </g>
  <rect fill="gray" height="55" rx="8.25" ry="8.25" stroke="gray" stroke-width="1.0" transform="translate(1 2)" width="85" x="454" y="335"/>
  <g id="node_77b879d2-20c3-4475-a74b-1d15e7ce13b0">
    <rect fill="url(#g1)" height="55" rx="8.25" ry="8.25" stroke="#000000" stroke-width="1.0" width="85" x="454" y="335"/>
  </g>
  <text fill="#000000" font-decoration="none" font-family="Arial,Helvetica" font-size="24" font-weight="normal" text-anchor="middle" x="496" y="372">B3</text>
  <path d="M 1091 339 L 1112 360 L 1091 381 L 1070 360 Z" fill="gray" stroke="gray" stroke-width="1.0" transform="translate(1 2)"/>
  <g id="node_8c5fa4f5-208c-48eb-aed7-7336aa238c66">
    <path d="M 1091 339 L 1112 360 L 1091 381 L 1070 360 Z" fill="url(#g1)" stroke="#000000" stroke-width="1.0"/>
    <path d=" M 1083 360 L 1099 360 M 1091 352 L 1091 368" fill="none" stroke="#000000" stroke-width="5.0"/>
  </g>
  <rect fill="gray" height="55" rx="8.25" ry="8.25" stroke="gray" stroke-width="1.0" transform="translate(1 2)" width="85" x="207" y="98"/>
  <g id="node_135291f7-74b9-4ae8-8080-a15c7a794c18">
    <rect fill="url(#g1)" height="55" rx="8.25" ry="8.25" stroke="#000000" stroke-width="1.0" width="85" x="207" y="98"/>
  </g>
  <text fill="#000000" font-decoration="none" font-family="Arial,Helvetica" font-size="24" font-weight="normal" text-anchor="middle" x="250" y="135">A1</text>
  <rect fill="gray" height="55" rx="8.25" ry="8.25" stroke="gray" stroke-width="1.0" transform="translate(1 2)" width="85" x="1521" y="190"/>
  <g id="node_fc234984-0802-4a09-baa6-caea58957907">
    <rect fill="url(#g1)" height="55" rx="8.25" ry="8.25" stroke="#000000" stroke-width="1.0" width="85" x="1521" y="190"/>
  </g>
  <text fill="#000000" font-decoration="none" font-family="Arial,Helvetica" font-size="24" font-weight="normal" text-anchor="middle" x="1564" y="227">END</text>
  <rect fill="gray" height="55" rx="8.25" ry="8.25" stroke="gray" stroke-width="1.0" transform="translate(1 2)" width="85" x="1172" y="380"/>
  <g id="node_29f79db0-cca0-41f8-9e06-73746caf6405">
    <rect fill="url(#g1)" height="55" rx="8.25" ry="8.25" stroke="#000000" stroke-width="1.0" width="85" x="1172" y="380"/>
  </g>
  <text fill="#000000" font-decoration="none" font-family="Arial,Helvetica" font-size="24" font-weight="normal" text-anchor="middle" x="1214" y="417">E2</text>
  <path d="M 373 104 L 394 125 L 373 146 L 352 125 Z" fill="gray" stroke="gray" stroke-width="1.0" transform="translate(1 2)"/>
  <g id="node_23adb3a5-41f1-4b0a-9cb4-e6f36219fc1e">
    <path d="M 373 104 L 394 125 L 373 146 L 352 125 Z" fill="url(#g1)" stroke="#000000" stroke-width="1.0"/>
    <path d=" M 379 115 L 367 136 M 367 115 L 379 136" fill="none" stroke="#000000" stroke-width="3.0"/>
  </g>
  <ellipse cx="29" cy="220" fill="gray" rx="16" ry="16" stroke="gray" stroke-width="1.0" transform="translate(1 2)"/>
  <g id="node_580f23b6-db61-4f4a-991f-d6bc11076ee1">
    <ellipse cx="29" cy="220" fill="url(#g1)" rx="16" ry="16" stroke="#000000" stroke-width="1.0"/>
  </g>
  <text fill="#000000" font-decoration="none" font-family="Arial,Helvetica" font-size="24" font-weight="normal" text-anchor="middle" x="29" y="262">Start</text>
  <path d="M 844 197 L 865 218 L 844 239 L 823 218 Z" fill="gray" stroke="gray" stroke-width="1.0" transform="translate(1 2)"/>
  <g id="node_c6b602b8-94ab-4756-b77b-440683adedc5">
    <path d="M 844 197 L 865 218 L 844 239 L 823 218 Z" fill="url(#g1)" stroke="#000000" stroke-width="1.0"/>
    <path d=" M 836 218 L 852 218 M 844 210 L 844 226" fill="none" stroke="#000000" stroke-width="5.0"/>
  </g>
  <rect fill="gray" height="55" rx="8.25" ry="8.25" stroke="gray" stroke-width="1.0" transform="translate(1 2)" width="85" x="207" y="288"/>
  <g id="node_deccc4cd-dd65-4001-a0f5-56bdb7a13c70">
    <rect fill="url(#g1)" height="55" rx="8.25" ry="8.25" stroke="#000000" stroke-width="1.0" width="85" x="207" y="288"/>
  </g>
  <text fill="#000000" font-decoration="none" font-family="Arial,Helvetica" font-size="24" font-weight="normal" text-anchor="middle" x="249" y="325">B1</text>
  <path d="M 1440 197 L 1461 218 L 1440 239 L 1419 218 Z" fill="gray" stroke="gray" stroke-width="1.0" transform="translate(1 2)"/>
  <g id="node_01e743d3-d934-4cc0-b2bb-d301e077d4a9">
    <path d="M 1440 197 L 1461 218 L 1440 239 L 1419 218 Z" fill="url(#g1)" stroke="#000000" stroke-width="1.0"/>
    <path d=" M 1432 218 L 1448 218 M 1440 210 L 1440 226" fill="none" stroke="#000000" stroke-width="5.0"/>
  </g>
  <rect fill="gray" height="55" rx="8.25" ry="8.25" stroke="gray" stroke-width="1.0" transform="translate(1 2)" width="85" x="1070" y="190"/>
  <g id="node_73fb4fcd-a337-43dd-ae8d-4abbfbc456f2">
    <rect fill="url(#g1)" height="55" rx="8.25" ry="8.25" stroke="#000000" stroke-width="1.0" width="85" x="1070" y="190"/>
  </g>
  <text fill="#000000" font-decoration="none" font-family="Arial,Helvetica" font-size="24" font-weight="normal" text-anchor="middle" x="1113" y="227">C2</text>
  <g id="node_8620748b-e280-4dfc-bbb2-2adca88c034d">
    <path d="M 454.5 268.0 L 444.5 273.0 L 447.0 268.0 L 444.5 263.0 z" fill="#000000" stroke="#000000" stroke-width="1.0"/>
    <path d="M 395.0 315.5 L 414.5 315.5 Q 424.5 315.5 424.5 305.5 L 424.5 278.0 Q 424.5 268.0 434.5 268.0 L 455.0 268.0" fill="none" stroke="#000000" stroke-width="1.0"/>
  </g>
  <g id="node_79031c2b-de3c-4ea6-85b2-60cc980b4852">
    <path d="M 454.5 78.0 L 444.5 83.0 L 447.0 78.0 L 444.5 73.0 z" fill="#000000" stroke="#000000" stroke-width="1.0"/>
    <path d="M 395.0 125.5 L 414.5 125.5 Q 424.5 125.5 424.5 115.5 L 424.5 88.0 Q 424.5 78.0 434.5 78.0 L 455.0 78.0" fill="none" stroke="#000000" stroke-width="1.0"/>
  </g>
  <g id="node_998eb745-c9df-42ca-bf47-da628c70d834">
    <path d="M 1172.5 313.0 L 1162.5 318.0 L 1165.0 313.0 L 1162.5 308.0 z" fill="#000000" stroke="#000000" stroke-width="1.0"/>
    <path d="M 1113.0 360.5 L 1132.5 360.5 Q 1142.5 360.5 1142.5 350.5 L 1142.5 323.0 Q 1142.5 313.0 1152.5 313.0 L 1173.0 313.0" fill="none" stroke="#000000" stroke-width="1.0"/>
  </g>
  <g id="node_d6f29737-c8e7-44fa-bfec-dff84ce5cda2">
    <path d="M 207.5 125.5 L 197.5 130.5 L 200.0 125.5 L 197.5 120.5 z" fill="#000000" stroke="#000000" stroke-width="1.0"/>
    <path d="M 148.0 220.5 L 167.5 220.5 Q 177.5 220.5 177.5 210.5 L 177.5 135.5 Q 177.5 125.5 187.5 125.5 L 208.0 125.5" fill="none" stroke="#000000" stroke-width="1.0"/>
  </g>
  <g id="node_08f9fbf0-2fbb-42d9-b295-b595d4edcd57">
    <path d="M 1419.5 218.0 L 1409.5 223.0 L 1412.0 218.0 L 1409.5 213.0 z" fill="#000000" stroke="#000000" stroke-width="1.0"/>
    <path d="M 1360.5 363.0 L 1379.5 363.0 Q 1389.5 363.0 1389.5 353.0 L 1389.5 228.0 Q 1389.5 218.0 1399.5 218.0 L 1420.0 218.0" fill="none" stroke="#000000" stroke-width="1.0"/>
  </g>
  <g id="node_27cebf18-e700-4af9-b95d-7ea672620e9a">
    <path d="M 1172.5 28.0 L 1162.5 33.0 L 1165.0 28.0 L 1162.5 23.0 z" fill="#000000" stroke="#000000" stroke-width="1.0"/>
    <path d="M 1113.0 75.5 L 1132.5 75.5 Q 1142.5 75.5 1142.5 65.5 L 1142.5 38.0 Q 1142.5 28.0 1152.5 28.0 L 1173.0 28.0" fill="none" stroke="#000000" stroke-width="1.0"/>
  </g>
  <g id="node_adb854b4-64a0-4854-8309-bca3555c76b0">
    <path d="M 925.5 75.5 L 915.5 80.5 L 918.0 75.5 L 915.5 70.5 z" fill="#000000" stroke="#000000" stroke-width="1.0"/>
    <path d="M 866.5 218.0 L 885.5 218.0 Q 895.5 218.0 895.5 208.0 L 895.5 85.5 Q 895.5 75.5 905.5 75.5 L 926.0 75.5" fill="none" stroke="#000000" stroke-width="1.0"/>
  </g>
  <g id="node_0d340f51-6672-436c-b98c-4d9fa41699c4">
    <path d="M 1666.5 218.0 L 1656.5 223.0 L 1659.0 218.0 L 1656.5 213.0 z" fill="#000000" stroke="#000000" stroke-width="1.0"/>
    <path d="M 1607.5 218.0 L 1626.5 218.0 Q 1636.5 218.0 1636.5 218.0 L 1636.5 218.0 L 1667.0 218.0" fill="none" stroke="#000000" stroke-width="1.0"/>
  </g>
  <g id="node_4a103279-ee8d-490f-bc9e-f20fbae92bdd">
    <path d="M 1317.5 363.0 L 1307.5 368.0 L 1310.0 363.0 L 1307.5 358.0 z" fill="#000000" stroke="#000000" stroke-width="1.0"/>
    <path d="M 1258.5 313.0 L 1277.5 313.0 Q 1287.5 313.0 1287.5 323.0 L 1287.5 353.0 Q 1287.5 363.0 1297.5 363.0 L 1318.0 363.0" fill="none" stroke="#000000" stroke-width="1.0"/>
  </g>
  <g id="node_8346db10-65bf-498a-9f3e-9331e632640e">
    <path d="M 701.5 128.0 L 691.5 133.0 L 694.0 128.0 L 691.5 123.0 z" fill="#000000" stroke="#000000" stroke-width="1.0"/>
    <path d="M 642.5 128.0 L 661.5 128.0 Q 671.5 128.0 671.5 128.0 L 671.5 128.0 L 702.0 128.0" fill="none" stroke="#000000" stroke-width="1.0"/>
  </g>
  <g id="node_6401afcc-a482-4e33-b6bb-d03c295cbf16">
    <path d="M 599.5 318.0 L 589.5 323.0 L 592.0 318.0 L 589.5 313.0 z" fill="#000000" stroke="#000000" stroke-width="1.0"/>
    <path d="M 540.5 268.0 L 559.5 268.0 Q 569.5 268.0 569.5 278.0 L 569.5 308.0 Q 569.5 318.0 579.5 318.0 L 600.0 318.0" fill="none" stroke="#000000" stroke-width="1.0"/>
  </g>
  <g id="node_4bdf2df7-1683-4da8-854c-0bf137177245">
    <path d="M 1070.5 218.0 L 1060.5 223.0 L 1063.0 218.0 L 1060.5 213.0 z" fill="#000000" stroke="#000000" stroke-width="1.0"/>
    <path d="M 1011.5 218.0 L 1030.5 218.0 Q 1040.5 218.0 1040.5 218.0 L 1040.5 218.0 L 1071.0 218.0" fill="none" stroke="#000000" stroke-width="1.0"/>
  </g>
  <g id="node_51b47122-d480-448f-9220-759bf579b076">
    <path d="M 925.5 218.0 L 915.5 223.0 L 918.0 218.0 L 915.5 213.0 z" fill="#000000" stroke="#000000" stroke-width="1.0"/>
    <path d="M 866.5 218.0 L 885.5 218.0 Q 895.5 218.0 895.5 218.0 L 895.5 218.0 L 926.0 218.0" fill="none" stroke="#000000" stroke-width="1.0"/>
  </g>
  <g id="node_eb07634e-c4ee-4101-8561-625d81627c2f">
    <path d="M 1521.5 218.0 L 1511.5 223.0 L 1514.0 218.0 L 1511.5 213.0 z" fill="#000000" stroke="#000000" stroke-width="1.0"/>
    <path d="M 1462.5 218.0 L 1481.5 218.0 Q 1491.5 218.0 1491.5 218.0 L 1491.5 218.0 L 1522.0 218.0" fill="none" stroke="#000000" stroke-width="1.0"/>
  </g>
  <g id="node_ddd2cdd0-9d89-4cd1-96fd-21c6aabb4300">
    <path d="M 1172.5 408.0 L 1162.5 413.0 L 1165.0 408.0 L 1162.5 403.0 z" fill="#000000" stroke="#000000" stroke-width="1.0"/>
    <path d="M 1113.0 360.5 L 1132.5 360.5 Q 1142.5 360.5 1142.5 370.5 L 1142.5 398.0 Q 1142.5 408.0 1152.5 408.0 L 1173.0 408.0" fill="none" stroke="#000000" stroke-width="1.0"/>
  </g>
  <g id="node_68627840-2023-4e9c-bb7b-8117be6fa1b6">
    <path d="M 599.5 128.0 L 589.5 133.0 L 592.0 128.0 L 589.5 123.0 z" fill="#000000" stroke="#000000" stroke-width="1.0"/>
    <path d="M 540.5 78.0 L 559.5 78.0 Q 569.5 78.0 569.5 88.0 L 569.5 118.0 Q 569.5 128.0 579.5 128.0 L 600.0 128.0" fill="none" stroke="#000000" stroke-width="1.0"/>
  </g>
  <g id="node_233719cb-5af2-41f6-8e93-76dcee84290f">
    <path d="M 1317.5 363.0 L 1307.5 368.0 L 1310.0 363.0 L 1307.5 358.0 z" fill="#000000" stroke="#000000" stroke-width="1.0"/>
    <path d="M 1258.5 408.0 L 1277.5 408.0 Q 1287.5 408.0 1287.5 398.0 L 1287.5 373.0 Q 1287.5 363.0 1297.5 363.0 L 1318.0 363.0" fill="none" stroke="#000000" stroke-width="1.0"/>
  </g>
  <g id="node_4d3d91c5-347c-4538-9404-9ef98fab0c42">
    <path d="M 207.5 315.5 L 197.5 320.5 L 200.0 315.5 L 197.5 310.5 z" fill="#000000" stroke="#000000" stroke-width="1.0"/>
    <path d="M 148.0 220.5 L 167.5 220.5 Q 177.5 220.5 177.5 230.5 L 177.5 305.5 Q 177.5 315.5 187.5 315.5 L 208.0 315.5" fill="none" stroke="#000000" stroke-width="1.0"/>
  </g>
  <g id="node_68b00488-f0c0-4ec1-a39f-28e420c76cd2">
    <path d="M 599.5 128.0 L 589.5 133.0 L 592.0 128.0 L 589.5 123.0 z" fill="#000000" stroke="#000000" stroke-width="1.0"/>
    <path d="M 540.5 173.0 L 559.5 173.0 Q 569.5 173.0 569.5 163.0 L 569.5 138.0 Q 569.5 128.0 579.5 128.0 L 600.0 128.0" fill="none" stroke="#000000" stroke-width="1.0"/>
  </g>
  <g id="node_c3cbbb6a-0d5a-4997-926c-2606c58f4cde">
    <path d="M 1317.5 78.0 L 1307.5 83.0 L 1310.0 78.0 L 1307.5 73.0 z" fill="#000000" stroke="#000000" stroke-width="1.0"/>
    <path d="M 1258.5 28.0 L 1277.5 28.0 Q 1287.5 28.0 1287.5 38.0 L 1287.5 68.0 Q 1287.5 78.0 1297.5 78.0 L 1318.0 78.0" fill="none" stroke="#000000" stroke-width="1.0"/>
  </g>
  <g id="node_aa0ef409-7a5d-4abd-ac7e-93dba49c2e1c">
    <path d="M 742.5 197.0 L 737.5 187.0 L 742.5 189.5 L 747.5 187.0 z" fill="#000000" stroke="#000000" stroke-width="1.0"/>
    <path d="M 742.5 156.5 L 742.5 166.375 Q 742.5 176.25 742.5 186.25 L 742.5 197.5" fill="none" stroke="#000000" stroke-width="1.0"/>
  </g>
  <g id="node_540f3a39-b7e5-407b-9bd7-3077dd1f1b24">
    <path d="M 823.5 218.0 L 813.5 223.0 L 816.0 218.0 L 813.5 213.0 z" fill="#000000" stroke="#000000" stroke-width="1.0"/>
    <path d="M 764.5 218.0 L 783.5 218.0 Q 793.5 218.0 793.5 218.0 L 793.5 218.0 L 824.0 218.0" fill="none" stroke="#000000" stroke-width="1.0"/>
  </g>
  <g id="node_49e03b4e-dd70-45e7-9a5d-6b46d6a394a5">
    <path d="M 106.0 220.5 L 96.0 225.5 L 98.5 220.5 L 96.0 215.5 z" fill="#000000" stroke="#000000" stroke-width="1.0"/>
    <path d="M 46.492185591719476 220.5 L 65.5 220.5 Q 75.5 220.5 75.5 220.5 L 75.5 220.5 L 106.5 220.5" fill="none" stroke="#000000" stroke-width="1.0"/>
  </g>
  <g id="node_3750f965-fdfc-4cd9-93c1-7fd728d3cac9">
    <path d="M 1215.5 218.0 L 1205.5 223.0 L 1208.0 218.0 L 1205.5 213.0 z" fill="#000000" stroke="#000000" stroke-width="1.0"/>
    <path d="M 1156.5 218.0 L 1175.5 218.0 Q 1185.5 218.0 1185.5 218.0 L 1185.5 218.0 L 1216.0 218.0" fill="none" stroke="#000000" stroke-width="1.0"/>
  </g>
  <g id="node_5c32f558-e9fb-4ace-a6ff-0da79c67a316">
    <path d="M 1419.5 218.0 L 1409.5 223.0 L 1412.0 218.0 L 1409.5 213.0 z" fill="#000000" stroke="#000000" stroke-width="1.0"/>
    <path d="M 1360.5 78.0 L 1379.5 78.0 Q 1389.5 78.0 1389.5 88.0 L 1389.5 208.0 Q 1389.5 218.0 1399.5 218.0 L 1420.0 218.0" fill="none" stroke="#000000" stroke-width="1.0"/>
  </g>
  <g id="node_b0688084-fc7c-4ace-a93e-fc509688c774">
    <path d="M 1172.5 123.0 L 1162.5 128.0 L 1165.0 123.0 L 1162.5 118.0 z" fill="#000000" stroke="#000000" stroke-width="1.0"/>
    <path d="M 1113.0 75.5 L 1132.5 75.5 Q 1142.5 75.5 1142.5 85.5 L 1142.5 113.0 Q 1142.5 123.0 1152.5 123.0 L 1173.0 123.0" fill="none" stroke="#000000" stroke-width="1.0"/>
  </g>
  <g id="node_89ee98af-8062-461e-8eac-a76db4d07f27">
    <path d="M 1071.0 75.5 L 1061.0 80.5 L 1063.5 75.5 L 1061.0 70.5 z" fill="#000000" stroke="#000000" stroke-width="1.0"/>
    <path d="M 1011.5 75.5 L 1030.5 75.5 Q 1040.5 75.5 1040.5 75.5 L 1040.5 75.5 L 1071.5 75.5" fill="none" stroke="#000000" stroke-width="1.0"/>
  </g>
  <g id="node_edcf0d80-3cc1-4b5a-bd11-aa6178b44d1b">
    <path d="M 599.5 318.0 L 589.5 323.0 L 592.0 318.0 L 589.5 313.0 z" fill="#000000" stroke="#000000" stroke-width="1.0"/>
    <path d="M 540.5 363.0 L 559.5 363.0 Q 569.5 363.0 569.5 353.0 L 569.5 328.0 Q 569.5 318.0 579.5 318.0 L 600.0 318.0" fill="none" stroke="#000000" stroke-width="1.0"/>
  </g>
  <g id="node_fa013d47-71c7-44d4-88ab-954362ef7bb3">
    <path d="M 454.5 173.0 L 444.5 178.0 L 447.0 173.0 L 444.5 168.0 z" fill="#000000" stroke="#000000" stroke-width="1.0"/>
    <path d="M 395.0 125.5 L 414.5 125.5 Q 424.5 125.5 424.5 135.5 L 424.5 163.0 Q 424.5 173.0 434.5 173.0 L 455.0 173.0" fill="none" stroke="#000000" stroke-width="1.0"/>
  </g>
  <g id="node_fd54828a-5ff7-4991-a676-7f920223997a">
    <path d="M 454.5 363.0 L 444.5 368.0 L 447.0 363.0 L 444.5 358.0 z" fill="#000000" stroke="#000000" stroke-width="1.0"/>
    <path d="M 395.0 315.5 L 414.5 315.5 Q 424.5 315.5 424.5 325.5 L 424.5 353.0 Q 424.5 363.0 434.5 363.0 L 455.0 363.0" fill="none" stroke="#000000" stroke-width="1.0"/>
  </g>
  <g id="node_228c9226-aa1f-4323-98ae-667c469c30cd">
    <path d="M 353.0 315.5 L 343.0 320.5 L 345.5 315.5 L 343.0 310.5 z" fill="#000000" stroke="#000000" stroke-width="1.0"/>
    <path d="M 293.5 315.5 L 312.5 315.5 Q 322.5 315.5 322.5 315.5 L 322.5 315.5 L 353.5 315.5" fill="none" stroke="#000000" stroke-width="1.0"/>
  </g>
  <g id="node_187fd183-fbdd-49ff-b500-6fd793396f97">
    <path d="M 721.5 218.0 L 711.5 223.0 L 714.0 218.0 L 711.5 213.0 z" fill="#000000" stroke="#000000" stroke-width="1.0"/>
    <path d="M 642.5 318.0 L 671.5 318.0 Q 681.5 318.0 681.5 308.0 L 681.5 228.0 Q 681.5 218.0 691.5 218.0 L 722.0 218.0" fill="none" stroke="#000000" stroke-width="1.0"/>
  </g>
  <g id="node_2040003c-5609-49ad-8d86-c15b51e0478b">
    <path d="M 1317.5 78.0 L 1307.5 83.0 L 1310.0 78.0 L 1307.5 73.0 z" fill="#000000" stroke="#000000" stroke-width="1.0"/>
    <path d="M 1258.5 123.0 L 1277.5 123.0 Q 1287.5 123.0 1287.5 113.0 L 1287.5 88.0 Q 1287.5 78.0 1297.5 78.0 L 1318.0 78.0" fill="none" stroke="#000000" stroke-width="1.0"/>
  </g>
  <g id="node_fb49aa9e-0d7f-41e6-b0d3-799f899de7ee">
    <path d="M 925.5 360.5 L 915.5 365.5 L 918.0 360.5 L 915.5 355.5 z" fill="#000000" stroke="#000000" stroke-width="1.0"/>
    <path d="M 866.5 218.0 L 885.5 218.0 Q 895.5 218.0 895.5 228.0 L 895.5 350.5 Q 895.5 360.5 905.5 360.5 L 926.0 360.5" fill="none" stroke="#000000" stroke-width="1.0"/>
  </g>
  <g id="node_68c64c2c-b7ab-46a9-93f0-2b61b700c61c">
    <path d="M 353.0 125.5 L 343.0 130.5 L 345.5 125.5 L 343.0 120.5 z" fill="#000000" stroke="#000000" stroke-width="1.0"/>
    <path d="M 293.5 125.5 L 312.5 125.5 Q 322.5 125.5 322.5 125.5 L 322.5 125.5 L 353.5 125.5" fill="none" stroke="#000000" stroke-width="1.0"/>
  </g>
  <g id="node_7ba2421c-4131-49b0-953f-32ec8b43ed96">
    <path d="M 1419.5 218.0 L 1409.5 223.0 L 1412.0 218.0 L 1409.5 213.0 z" fill="#000000" stroke="#000000" stroke-width="1.0"/>
    <path d="M 1301.5 218.0 L 1350.0 218.0 Q 1360.0 218.0 1360.0 218.0 L 1360.0 218.0 L 1420.0 218.0" fill="none" stroke="#000000" stroke-width="1.0"/>
  </g>
  <g id="node_fab7feb1-a946-4bff-858d-417124bf125f">
    <path d="M 1071.0 360.5 L 1061.0 365.5 L 1063.5 360.5 L 1061.0 355.5 z" fill="#000000" stroke="#000000" stroke-width="1.0"/>
    <path d="M 1011.5 360.5 L 1030.5 360.5 Q 1040.5 360.5 1040.5 360.5 L 1040.5 360.5 L 1071.5 360.5" fill="none" stroke="#000000" stroke-width="1.0"/>
  </g>
</svg>
