<?xml version="1.0" encoding="WINDOWS-1252" standalone="no"?>
<svg xmlns="http://www.w3.org/2000/svg" xmlns:xlink="http://www.w3.org/1999/xlink" height="341" version="1.1" viewBox="0 0 1554 341" width="1554">
  <defs>
    <linearGradient id="g1" x1="0%" x2="0%" y1="0%" y2="100%">
      <stop offset="0%" style="stop-color:#FFFFFF"/>
      <stop offset="100%" style="stop-color:#cfcfcf"/>
    </linearGradient>
  </defs>
  <rect fill="gray" height="55" rx="8.25" ry="8.25" stroke="gray" stroke-width="1.0" transform="translate(1 2)" width="85" x="1106" y="141"/>
  <g id="node_aecdce40-1514-4ba2-97d7-90558ed8ade0">
    <rect fill="url(#g1)" height="55" rx="8.25" ry="8.25" stroke="#000000" stroke-width="1.0" width="85" x="1106" y="141"/>
  </g>
  <text fill="#000000" font-decoration="none" font-family="Arial,Helvetica" font-size="11" font-weight="normal" text-anchor="middle" x="1148" y="171">C3+complete</text>
  <rect fill="gray" height="55" rx="8.25" ry="8.25" stroke="gray" stroke-width="1.0" transform="translate(1 2)" width="85" x="361" y="99"/>
  <g id="node_f1d5debe-5e2b-42b9-b55f-1730797c209c">
    <rect fill="url(#g1)" height="55" rx="8.25" ry="8.25" stroke="#000000" stroke-width="1.0" width="85" x="361" y="99"/>
  </g>
  <text fill="#000000" font-decoration="none" font-family="Arial,Helvetica" font-size="11" font-weight="normal" text-anchor="middle" x="403" y="129">A3+complete</text>
  <path d="M 102 150 L 123 171 L 102 192 L 81 171 Z" fill="gray" stroke="gray" stroke-width="1.0" transform="translate(1 2)"/>
  <g id="node_274be8c2-4522-4b2a-8b30-0282b8a41823">
    <path d="M 102 150 L 123 171 L 102 192 L 81 171 Z" fill="url(#g1)" stroke="#000000" stroke-width="1.0"/>
    <path d=" M 94 171 L 110 171 M 102 163 L 102 179" fill="none" stroke="#000000" stroke-width="5.0"/>
  </g>
  <path d="M 1024 54 L 1045 75 L 1024 96 L 1003 75 Z" fill="gray" stroke="gray" stroke-width="1.0" transform="translate(1 2)"/>
  <g id="node_907a1aa7-534e-4b85-bf7c-2082742d12bd">
    <path d="M 1024 54 L 1045 75 L 1024 96 L 1003 75 Z" fill="url(#g1)" stroke="#000000" stroke-width="1.0"/>
    <path d=" M 1030 65 L 1018 86 M 1018 65 L 1030 86" fill="none" stroke="#000000" stroke-width="3.0"/>
  </g>
  <ellipse cx="17" cy="164" fill="gray" rx="16" ry="16" stroke="gray" stroke-width="1.0" transform="translate(1 2)"/>
  <g id="node_5ba7a189-a8d5-438e-bcab-c2cef5a19805">
    <ellipse cx="17" cy="164" fill="url(#g1)" rx="16" ry="16" stroke="#000000" stroke-width="1.0"/>
  </g>
  <text fill="#000000" font-decoration="none" font-family="Arial,Helvetica" font-size="11" font-weight="normal" text-anchor="middle" x="16" y="199">Start</text>
  <rect fill="gray" height="55" rx="8.25" ry="8.25" stroke="gray" stroke-width="1.0" transform="translate(1 2)" width="85" x="1106" y="1"/>
  <g id="node_3d3eec25-69a9-4805-a2bd-bf265a31964e">
    <rect fill="url(#g1)" height="55" rx="8.25" ry="8.25" stroke="#000000" stroke-width="1.0" width="85" x="1106" y="1"/>
  </g>
  <text fill="#000000" font-decoration="none" font-family="Arial,Helvetica" font-size="11" font-weight="normal" text-anchor="middle" x="1148" y="31">D3+complete</text>
  <path d="M 792 148 L 813 169 L 792 190 L 771 169 Z" fill="gray" stroke="gray" stroke-width="1.0" transform="translate(1 2)"/>
  <g id="node_89e09c21-9285-4ab6-b999-208e051192fa">
    <path d="M 792 148 L 813 169 L 792 190 L 771 169 Z" fill="url(#g1)" stroke="#000000" stroke-width="1.0"/>
    <path d=" M 784 169 L 800 169 M 792 161 L 792 177" fill="none" stroke="#000000" stroke-width="5.0"/>
  </g>
  <rect fill="gray" height="55" rx="8.25" ry="8.25" stroke="gray" stroke-width="1.0" transform="translate(1 2)" width="85" x="361" y="197"/>
  <g id="node_5bad3dc2-6209-45f4-a412-e96789089173">
    <rect fill="url(#g1)" height="55" rx="8.25" ry="8.25" stroke="#000000" stroke-width="1.0" width="85" x="361" y="197"/>
  </g>
  <text fill="#000000" font-decoration="none" font-family="Arial,Helvetica" font-size="11" font-weight="normal" text-anchor="middle" x="403" y="227">B2+complete</text>
  <rect fill="gray" height="55" rx="8.25" ry="8.25" stroke="gray" stroke-width="1.0" transform="translate(1 2)" width="85" x="846" y="71"/>
  <g id="node_26dcaff9-4306-43fc-842e-2ddb09fa9311">
    <rect fill="url(#g1)" height="55" rx="8.25" ry="8.25" stroke="#000000" stroke-width="1.0" width="85" x="846" y="71"/>
  </g>
  <text fill="#000000" font-decoration="none" font-family="Arial,Helvetica" font-size="11" font-weight="normal" text-anchor="middle" x="888" y="101">D1+complete</text>
  <rect fill="gray" height="55" rx="8.25" ry="8.25" stroke="gray" stroke-width="1.0" transform="translate(1 2)" width="85" x="566" y="110"/>
  <g id="node_64d8e40e-2841-4402-95d1-88fba7f7f14f">
    <rect fill="url(#g1)" height="55" rx="8.25" ry="8.25" stroke="#000000" stroke-width="1.0" width="85" x="566" y="110"/>
  </g>
  <text fill="#000000" font-decoration="none" font-family="Arial,Helvetica" font-size="11" font-weight="normal" text-anchor="middle" x="608" y="140">A4+complete</text>
  <rect fill="gray" height="55" rx="8.25" ry="8.25" stroke="gray" stroke-width="1.0" transform="translate(1 2)" width="85" x="361" y="29"/>
  <g id="node_e732da51-39ce-49b4-b762-6a97901a5266">
    <rect fill="url(#g1)" height="55" rx="8.25" ry="8.25" stroke="#000000" stroke-width="1.0" width="85" x="361" y="29"/>
  </g>
  <text fill="#000000" font-decoration="none" font-family="Arial,Helvetica" font-size="11" font-weight="normal" text-anchor="middle" x="403" y="59">A2+complete</text>
  <rect fill="gray" height="55" rx="8.25" ry="8.25" stroke="gray" stroke-width="1.0" transform="translate(1 2)" width="85" x="361" y="267"/>
  <g id="node_616f02ee-1bad-44c1-b4c6-052ca57194c1">
    <rect fill="url(#g1)" height="55" rx="8.25" ry="8.25" stroke="#000000" stroke-width="1.0" width="85" x="361" y="267"/>
  </g>
  <text fill="#000000" font-decoration="none" font-family="Arial,Helvetica" font-size="11" font-weight="normal" text-anchor="middle" x="403" y="297">B3+complete</text>
  <rect fill="gray" height="55" rx="8.25" ry="8.25" stroke="gray" stroke-width="1.0" transform="translate(1 2)" width="85" x="846" y="211"/>
  <g id="node_6c3e9e09-0175-47f5-abaa-01ab026f1564">
    <rect fill="url(#g1)" height="55" rx="8.25" ry="8.25" stroke="#000000" stroke-width="1.0" width="85" x="846" y="211"/>
  </g>
  <text fill="#000000" font-decoration="none" font-family="Arial,Helvetica" font-size="11" font-weight="normal" text-anchor="middle" x="888" y="241">E1+complete</text>
  <ellipse cx="1532" cy="162" fill="gray" rx="16" ry="16" stroke="gray" stroke-width="4.0" transform="translate(1 2)"/>
  <g id="node_ec709d45-9627-478f-a99d-0c0c9f255fdd">
    <ellipse cx="1532" cy="162" fill="url(#g1)" rx="16" ry="16" stroke="#000000" stroke-width="4.0"/>
  </g>
  <text fill="#000000" font-decoration="none" font-family="Arial,Helvetica" font-size="11" font-weight="normal" text-anchor="middle" x="1532" y="197">End</text>
  <rect fill="gray" height="55" rx="8.25" ry="8.25" stroke="gray" stroke-width="1.0" transform="translate(1 2)" width="85" x="846" y="141"/>
  <g id="node_cbb16b8c-279d-4db6-802c-25679991662f">
    <rect fill="url(#g1)" height="55" rx="8.25" ry="8.25" stroke="#000000" stroke-width="1.0" width="85" x="846" y="141"/>
  </g>
  <text fill="#000000" font-decoration="none" font-family="Arial,Helvetica" font-size="11" font-weight="normal" text-anchor="middle" x="888" y="171">C1+complete</text>
  <path d="M 1024 241 L 1045 262 L 1024 283 L 1003 262 Z" fill="gray" stroke="gray" stroke-width="1.0" transform="translate(1 2)"/>
  <g id="node_bb35e26c-deb7-4a8b-87bd-8f7dfba4b2dd">
    <path d="M 1024 241 L 1045 262 L 1024 283 L 1003 262 Z" fill="url(#g1)" stroke="#000000" stroke-width="1.0"/>
    <path d=" M 1016 262 L 1032 262 M 1024 254 L 1024 270" fill="none" stroke="#000000" stroke-width="5.0"/>
  </g>
  <path d="M 1257 78 L 1278 99 L 1257 120 L 1236 99 Z" fill="gray" stroke="gray" stroke-width="1.0" transform="translate(1 2)"/>
  <g id="node_83840207-2c62-424a-bc78-da9adccacce1">
    <path d="M 1257 78 L 1278 99 L 1257 120 L 1236 99 Z" fill="url(#g1)" stroke="#000000" stroke-width="1.0"/>
    <path d=" M 1263 89 L 1251 110 M 1251 89 L 1263 110" fill="none" stroke="#000000" stroke-width="3.0"/>
  </g>
  <rect fill="gray" height="55" rx="8.25" ry="8.25" stroke="gray" stroke-width="1.0" transform="translate(1 2)" width="85" x="1106" y="71"/>
  <g id="node_a8237519-c87c-44d3-99bc-d91ee9956d77">
    <rect fill="url(#g1)" height="55" rx="8.25" ry="8.25" stroke="#000000" stroke-width="1.0" width="85" x="1106" y="71"/>
  </g>
  <text fill="#000000" font-decoration="none" font-family="Arial,Helvetica" font-size="11" font-weight="normal" text-anchor="middle" x="1148" y="101">D2+complete</text>
  <path d="M 1257 218 L 1278 239 L 1257 260 L 1236 239 Z" fill="gray" stroke="gray" stroke-width="1.0" transform="translate(1 2)"/>
  <g id="node_ffde2879-33db-42f8-bf7b-c0acd85b0e46">
    <path d="M 1257 218 L 1278 239 L 1257 260 L 1236 239 Z" fill="url(#g1)" stroke="#000000" stroke-width="1.0"/>
    <path d=" M 1249 239 L 1265 239 M 1257 231 L 1257 247" fill="none" stroke="#000000" stroke-width="5.0"/>
  </g>
  <path d="M 512 220 L 533 241 L 512 262 L 491 241 Z" fill="gray" stroke="gray" stroke-width="1.0" transform="translate(1 2)"/>
  <g id="node_5a53f8dc-5be0-4da7-a00c-cc9ead1bdf8d">
    <path d="M 512 220 L 533 241 L 512 262 L 491 241 Z" fill="url(#g1)" stroke="#000000" stroke-width="1.0"/>
    <path d=" M 504 241 L 520 241 M 512 233 L 512 249" fill="none" stroke="#000000" stroke-width="5.0"/>
  </g>
  <rect fill="gray" height="55" rx="8.25" ry="8.25" stroke="gray" stroke-width="1.0" transform="translate(1 2)" width="85" x="1106" y="281"/>
  <g id="node_0e765876-f555-4965-89af-7e88fcfa9f94">
    <rect fill="url(#g1)" height="55" rx="8.25" ry="8.25" stroke="#000000" stroke-width="1.0" width="85" x="1106" y="281"/>
  </g>
  <text fill="#000000" font-decoration="none" font-family="Arial,Helvetica" font-size="11" font-weight="normal" text-anchor="middle" x="1148" y="311">E2+complete</text>
  <path d="M 1332 148 L 1353 169 L 1332 190 L 1311 169 Z" fill="gray" stroke="gray" stroke-width="1.0" transform="translate(1 2)"/>
  <g id="node_9f301d33-d63d-4be7-b323-6272eaa5115e">
    <path d="M 1332 148 L 1353 169 L 1332 190 L 1311 169 Z" fill="url(#g1)" stroke="#000000" stroke-width="1.0"/>
    <path d=" M 1324 169 L 1340 169 M 1332 161 L 1332 177" fill="none" stroke="#000000" stroke-width="5.0"/>
  </g>
  <rect fill="gray" height="55" rx="8.25" ry="8.25" stroke="gray" stroke-width="1.0" transform="translate(1 2)" width="85" x="156" y="109"/>
  <g id="node_573e460e-cebf-478f-a385-52edcf10dbb6">
    <rect fill="url(#g1)" height="55" rx="8.25" ry="8.25" stroke="#000000" stroke-width="1.0" width="85" x="156" y="109"/>
  </g>
  <text fill="#000000" font-decoration="none" font-family="Arial,Helvetica" font-size="11" font-weight="normal" text-anchor="middle" x="198" y="139">A1+complete</text>
  <path d="M 307 222 L 328 243 L 307 264 L 286 243 Z" fill="gray" stroke="gray" stroke-width="1.0" transform="translate(1 2)"/>
  <g id="node_26200554-c7e4-4edf-be68-64407998e28b">
    <path d="M 307 222 L 328 243 L 307 264 L 286 243 Z" fill="url(#g1)" stroke="#000000" stroke-width="1.0"/>
    <path d=" M 299 243 L 315 243 M 307 235 L 307 251" fill="none" stroke="#000000" stroke-width="5.0"/>
  </g>
  <rect fill="gray" height="55" rx="8.25" ry="8.25" stroke="gray" stroke-width="1.0" transform="translate(1 2)" width="85" x="1386" y="141"/>
  <g id="node_6894198d-16a1-4c3c-a40f-2df2b65fcc6c">
    <rect fill="url(#g1)" height="55" rx="8.25" ry="8.25" stroke="#000000" stroke-width="1.0" width="85" x="1386" y="141"/>
  </g>
  <text fill="#000000" font-decoration="none" font-family="Arial,Helvetica" font-size="11" font-weight="normal" text-anchor="middle" x="1428" y="171">END+complete</text>
  <path d="M 512 86 L 533 107 L 512 128 L 491 107 Z" fill="gray" stroke="gray" stroke-width="1.0" transform="translate(1 2)"/>
  <g id="node_57e20146-2541-4e66-ae62-76ea9cf8ef45">
    <path d="M 512 86 L 533 107 L 512 128 L 491 107 Z" fill="url(#g1)" stroke="#000000" stroke-width="1.0"/>
    <path d=" M 518 97 L 506 118 M 506 97 L 518 118" fill="none" stroke="#000000" stroke-width="3.0"/>
  </g>
  <rect fill="gray" height="55" rx="8.25" ry="8.25" stroke="gray" stroke-width="1.0" transform="translate(1 2)" width="85" x="1106" y="211"/>
  <g id="node_89607a24-4bcf-4384-9448-80b3913c1e1c">
    <rect fill="url(#g1)" height="55" rx="8.25" ry="8.25" stroke="#000000" stroke-width="1.0" width="85" x="1106" y="211"/>
  </g>
  <text fill="#000000" font-decoration="none" font-family="Arial,Helvetica" font-size="11" font-weight="normal" text-anchor="middle" x="1148" y="241">E3+complete</text>
  <rect fill="gray" height="55" rx="8.25" ry="8.25" stroke="gray" stroke-width="1.0" transform="translate(1 2)" width="85" x="976" y="141"/>
  <g id="node_8d77af32-9c49-4f97-a048-fe5ab6b030d4">
    <rect fill="url(#g1)" height="55" rx="8.25" ry="8.25" stroke="#000000" stroke-width="1.0" width="85" x="976" y="141"/>
  </g>
  <text fill="#000000" font-decoration="none" font-family="Arial,Helvetica" font-size="11" font-weight="normal" text-anchor="middle" x="1018" y="171">C2+complete</text>
  <path d="M 307 86 L 328 107 L 307 128 L 286 107 Z" fill="gray" stroke="gray" stroke-width="1.0" transform="translate(1 2)"/>
  <g id="node_37305e28-4893-4841-b797-8851fa77dcc2">
    <path d="M 307 86 L 328 107 L 307 128 L 286 107 Z" fill="url(#g1)" stroke="#000000" stroke-width="1.0"/>
    <path d=" M 313 97 L 301 118 M 301 97 L 313 118" fill="none" stroke="#000000" stroke-width="3.0"/>
  </g>
  <path d="M 717 149 L 738 170 L 717 191 L 696 170 Z" fill="gray" stroke="gray" stroke-width="1.0" transform="translate(1 2)"/>
  <g id="node_fe59c118-1f16-4846-ae42-3127e0fb39a6">
    <path d="M 717 149 L 738 170 L 717 191 L 696 170 Z" fill="url(#g1)" stroke="#000000" stroke-width="1.0"/>
    <path d=" M 709 170 L 725 170 M 717 162 L 717 178" fill="none" stroke="#000000" stroke-width="5.0"/>
  </g>
  <rect fill="gray" height="55" rx="8.25" ry="8.25" stroke="gray" stroke-width="1.0" transform="translate(1 2)" width="85" x="156" y="179"/>
  <g id="node_eba77420-e8cf-4e79-ad2b-2da37b12c5f1">
    <rect fill="url(#g1)" height="55" rx="8.25" ry="8.25" stroke="#000000" stroke-width="1.0" width="85" x="156" y="179"/>
  </g>
  <text fill="#000000" font-decoration="none" font-family="Arial,Helvetica" font-size="11" font-weight="normal" text-anchor="middle" x="198" y="209">B1+complete</text>
  <g id="node_f055cde1-59f2-415a-b1ca-5d4a9943342b">
    <path d="M 696.0 170.5 L 686.0 175.5 L 688.5 170.5 L 686.0 165.5 z" fill="#000000" stroke="#000000" stroke-width="1.0"/>
    <path d="M 651.5 137.5 L 663.5 137.5 Q 673.5 137.5 673.5 147.5 L 673.5 160.5 Q 673.5 170.5 683.5 170.5 L 696.5 170.5" fill="none" stroke="#000000" stroke-width="1.0"/>
  </g>
  <g id="node_e2b38a77-8cb4-45e5-8972-d4daec0de6e1">
    <path d="M 1105.5 28.5 L 1095.5 33.5 L 1098.0 28.5 L 1095.5 23.5 z" fill="#000000" stroke="#000000" stroke-width="1.0"/>
    <path d="M 1046.0 75.5 L 1065.75 75.5 Q 1075.75 75.5 1075.75 65.5 L 1075.75 38.5 Q 1075.75 28.5 1085.75 28.5 L 1106.0 28.5" fill="none" stroke="#000000" stroke-width="1.0"/>
  </g>
  <g id="node_07f5fea2-9bbf-4420-b6d4-44e536dea45a">
    <path d="M 155.5 136.5 L 145.5 141.5 L 148.0 136.5 L 145.5 131.5 z" fill="#000000" stroke="#000000" stroke-width="1.0"/>
    <path d="M 123.0 171.5 L 131.25 171.5 Q 139.5 171.5 139.5 161.5 L 139.5 146.5 Q 139.5 136.5 147.75 136.5 L 156.0 136.5" fill="none" stroke="#000000" stroke-width="1.0"/>
  </g>
  <g id="node_8f7b9ace-8084-4a91-a0ce-1ece8745d3e1">
    <path d="M 286.0 107.5 L 276.0 112.5 L 278.5 107.5 L 276.0 102.5 z" fill="#000000" stroke="#000000" stroke-width="1.0"/>
    <path d="M 241.5 136.5 L 253.5 136.5 Q 263.5 136.5 263.5 126.5 L 263.5 117.0 Q 263.5 107.5 273.5 107.5 L 286.5 107.5" fill="none" stroke="#000000" stroke-width="1.0"/>
  </g>
  <g id="node_4a50fe46-7c96-4ac0-ad23-23aec151ba0c">
    <path d="M 1236.0 99.5 L 1226.0 104.5 L 1228.5 99.5 L 1226.0 94.5 z" fill="#000000" stroke="#000000" stroke-width="1.0"/>
    <path d="M 1191.5 28.5 L 1203.5 28.5 Q 1213.5 28.5 1213.5 38.5 L 1213.5 89.5 Q 1213.5 99.5 1223.5 99.5 L 1236.5 99.5" fill="none" stroke="#000000" stroke-width="1.0"/>
  </g>
  <g id="node_f375370c-7429-49aa-b0f9-4610043d6782">
    <path d="M 1105.5 168.5 L 1095.5 173.5 L 1098.0 168.5 L 1095.5 163.5 z" fill="#000000" stroke="#000000" stroke-width="1.0"/>
    <path d="M 1061.5 168.5 L 1073.5 168.5 Q 1083.5 168.5 1083.5 168.5 L 1083.5 168.5 L 1106.0 168.5" fill="none" stroke="#000000" stroke-width="1.0"/>
  </g>
  <g id="node_c359cbe3-dc2f-4b21-a3df-19aac1c3e139">
    <path d="M 1319.5 161.0 L 1309.5 166.0 L 1312.0 161.0 L 1309.5 156.0 z" fill="#000000" stroke="#000000" stroke-width="1.0"/>
    <path d="M 1191.5 161.0 L 1239.0 161.0 Q 1249.0 161.0 1249.0 161.0 L 1249.0 161.0 L 1320.0 161.0" fill="none" stroke="#000000" stroke-width="1.0"/>
  </g>
  <g id="node_a00c4460-5798-4ed0-a990-787f4f6ba7d8">
    <path d="M 286.0 243.5 L 276.0 248.5 L 278.5 243.5 L 276.0 238.5 z" fill="#000000" stroke="#000000" stroke-width="1.0"/>
    <path d="M 241.5 206.5 L 253.5 206.5 Q 263.5 206.5 263.5 216.5 L 263.5 233.5 Q 263.5 243.5 273.5 243.5 L 286.5 243.5" fill="none" stroke="#000000" stroke-width="1.0"/>
  </g>
  <g id="node_06a0c0db-5180-4b56-b0da-f9e42596f5ce">
    <path d="M 1004.0 262.5 L 994.0 267.5 L 996.5 262.5 L 994.0 257.5 z" fill="#000000" stroke="#000000" stroke-width="1.0"/>
    <path d="M 931.5 238.5 L 957.25 238.5 Q 967.25 238.5 967.25 248.5 L 967.25 255.5 Q 967.25 262.5 977.25 262.5 L 1004.5 262.5" fill="none" stroke="#000000" stroke-width="1.0"/>
  </g>
  <g id="node_89b26596-17b4-40a4-9aa0-175825dc88db">
    <path d="M 155.5 206.5 L 145.5 211.5 L 148.0 206.5 L 145.5 201.5 z" fill="#000000" stroke="#000000" stroke-width="1.0"/>
    <path d="M 123.0 171.5 L 131.25 171.5 Q 139.5 171.5 139.5 181.5 L 139.5 196.5 Q 139.5 206.5 147.75 206.5 L 156.0 206.5" fill="none" stroke="#000000" stroke-width="1.0"/>
  </g>
  <g id="node_97da5831-6ac6-4fdc-a6f6-ba6edf28722f">
    <path d="M 696.0 170.5 L 686.0 175.5 L 688.5 170.5 L 686.0 165.5 z" fill="#000000" stroke="#000000" stroke-width="1.0"/>
    <path d="M 533.0 241.5 L 596.0 241.5 Q 606.0 241.5 606.0 231.5 L 606.0 180.5 Q 606.0 170.5 616.0 170.5 L 696.5 170.5" fill="none" stroke="#000000" stroke-width="1.0"/>
  </g>
  <g id="node_712a6a4c-336d-4ed0-b528-2a36311cceb3">
    <path d="M 565.5 137.5 L 555.5 142.5 L 558.0 137.5 L 555.5 132.5 z" fill="#000000" stroke="#000000" stroke-width="1.0"/>
    <path d="M 533.0 107.5 L 541.25 107.5 Q 549.5 107.5 549.5 117.5 L 549.5 127.5 Q 549.5 137.5 557.75 137.5 L 566.0 137.5" fill="none" stroke="#000000" stroke-width="1.0"/>
  </g>
  <g id="node_4a4d8128-5c17-4f3d-942e-7f2a7f427264">
    <path d="M 360.5 294.5 L 350.5 299.5 L 353.0 294.5 L 350.5 289.5 z" fill="#000000" stroke="#000000" stroke-width="1.0"/>
    <path d="M 328.0 243.5 L 336.25 243.5 Q 344.5 243.5 344.5 253.5 L 344.5 284.5 Q 344.5 294.5 352.75 294.5 L 361.0 294.5" fill="none" stroke="#000000" stroke-width="1.0"/>
  </g>
  <g id="node_bf11e2ae-17fd-4cb4-88bd-ebe3946d3557">
    <path d="M 360.5 224.5 L 350.5 229.5 L 353.0 224.5 L 350.5 219.5 z" fill="#000000" stroke="#000000" stroke-width="1.0"/>
    <path d="M 328.0 243.5 L 336.25 243.5 Q 344.5 243.5 344.5 234.0 L 344.5 229.25 Q 344.5 224.5 352.75 224.5 L 361.0 224.5" fill="none" stroke="#000000" stroke-width="1.0"/>
  </g>
  <g id="node_e520e7df-da48-4663-b500-076bc2954672">
    <path d="M 1311.0 169.5 L 1301.0 174.5 L 1303.5 169.5 L 1301.0 164.5 z" fill="#000000" stroke="#000000" stroke-width="1.0"/>
    <path d="M 1278.0 99.5 L 1286.25 99.5 Q 1294.5 99.5 1294.5 109.5 L 1294.5 159.5 Q 1294.5 169.5 1303.0 169.5 L 1311.5 169.5" fill="none" stroke="#000000" stroke-width="1.0"/>
  </g>
  <g id="node_9c0f9371-5640-49b3-865a-1ffadaf84dfc">
    <path d="M 491.0 241.5 L 481.0 246.5 L 483.5 241.5 L 481.0 236.5 z" fill="#000000" stroke="#000000" stroke-width="1.0"/>
    <path d="M 446.5 224.5 L 458.5 224.5 Q 468.5 224.5 468.5 233.0 L 468.5 237.25 Q 468.5 241.5 478.5 241.5 L 491.5 241.5" fill="none" stroke="#000000" stroke-width="1.0"/>
  </g>
  <g id="node_5b3a0b2c-7057-42d9-9c02-95a28596b714">
    <path d="M 1105.5 238.5 L 1095.5 243.5 L 1098.0 238.5 L 1095.5 233.5 z" fill="#000000" stroke="#000000" stroke-width="1.0"/>
    <path d="M 1046.0 262.5 L 1065.75 262.5 Q 1075.75 262.5 1075.75 252.5 L 1075.75 245.5 Q 1075.75 238.5 1085.75 238.5 L 1106.0 238.5" fill="none" stroke="#000000" stroke-width="1.0"/>
  </g>
  <g id="node_37f67c46-7c2f-4a4d-8a5f-b7c0251bf53e">
    <path d="M 1236.0 99.5 L 1226.0 104.5 L 1228.5 99.5 L 1226.0 94.5 z" fill="#000000" stroke="#000000" stroke-width="1.0"/>
    <path d="M 1191.5 98.5 L 1203.5 98.5 Q 1213.5 98.5 1213.5 99.0 L 1213.5 99.25 Q 1213.5 99.5 1223.5 99.5 L 1236.5 99.5" fill="none" stroke="#000000" stroke-width="1.0"/>
  </g>
  <g id="node_34213c93-aff1-4131-bdc1-d0e5f84c18c9">
    <path d="M 845.5 238.5 L 835.5 243.5 L 838.0 238.5 L 835.5 233.5 z" fill="#000000" stroke="#000000" stroke-width="1.0"/>
    <path d="M 813.0 169.5 L 821.25 169.5 Q 829.5 169.5 829.5 179.5 L 829.5 228.5 Q 829.5 238.5 837.75 238.5 L 846.0 238.5" fill="none" stroke="#000000" stroke-width="1.0"/>
  </g>
  <g id="node_3d507bf1-6f34-434f-b595-af65f71fcbe2">
    <path d="M 1311.0 169.5 L 1301.0 174.5 L 1303.5 169.5 L 1301.0 164.5 z" fill="#000000" stroke="#000000" stroke-width="1.0"/>
    <path d="M 1278.0 239.5 L 1286.25 239.5 Q 1294.5 239.5 1294.5 229.5 L 1294.5 179.5 Q 1294.5 169.5 1303.0 169.5 L 1311.5 169.5" fill="none" stroke="#000000" stroke-width="1.0"/>
  </g>
  <g id="node_2976914d-9926-4638-a033-66c5ff56c307">
    <path d="M 1236.0 239.5 L 1226.0 244.5 L 1228.5 239.5 L 1226.0 234.5 z" fill="#000000" stroke="#000000" stroke-width="1.0"/>
    <path d="M 1191.5 238.5 L 1203.5 238.5 Q 1213.5 238.5 1213.5 239.0 L 1213.5 239.25 Q 1213.5 239.5 1223.5 239.5 L 1236.5 239.5" fill="none" stroke="#000000" stroke-width="1.0"/>
  </g>
  <g id="node_c96aeac9-0380-4ba5-b6d9-cb9b1c238415">
    <path d="M 845.5 98.5 L 835.5 103.5 L 838.0 98.5 L 835.5 93.5 z" fill="#000000" stroke="#000000" stroke-width="1.0"/>
    <path d="M 813.0 169.5 L 821.25 169.5 Q 829.5 169.5 829.5 159.5 L 829.5 108.5 Q 829.5 98.5 837.75 98.5 L 846.0 98.5" fill="none" stroke="#000000" stroke-width="1.0"/>
  </g>
  <g id="node_a1e45d5e-f50a-44f7-86f1-7160afad91df">
    <path d="M 491.0 107.5 L 481.0 112.5 L 483.5 107.5 L 481.0 102.5 z" fill="#000000" stroke="#000000" stroke-width="1.0"/>
    <path d="M 446.5 56.5 L 458.5 56.5 Q 468.5 56.5 468.5 66.5 L 468.5 97.5 Q 468.5 107.5 478.5 107.5 L 491.5 107.5" fill="none" stroke="#000000" stroke-width="1.0"/>
  </g>
  <g id="node_7b329e72-b458-4ad2-8a02-b02b3592abe9">
    <path d="M 1105.5 98.5 L 1095.5 103.5 L 1098.0 98.5 L 1095.5 93.5 z" fill="#000000" stroke="#000000" stroke-width="1.0"/>
    <path d="M 1046.0 75.5 L 1065.75 75.5 Q 1075.75 75.5 1075.75 85.5 L 1075.75 92.0 Q 1075.75 98.5 1085.75 98.5 L 1106.0 98.5" fill="none" stroke="#000000" stroke-width="1.0"/>
  </g>
  <g id="node_bb60b0c9-ae9c-42df-abbe-9189702e3040">
    <path d="M 1004.0 75.5 L 994.0 80.5 L 996.5 75.5 L 994.0 70.5 z" fill="#000000" stroke="#000000" stroke-width="1.0"/>
    <path d="M 931.5 98.5 L 957.25 98.5 Q 967.25 98.5 967.25 88.5 L 967.25 82.0 Q 967.25 75.5 977.25 75.5 L 1004.5 75.5" fill="none" stroke="#000000" stroke-width="1.0"/>
  </g>
  <g id="node_05b74acf-35af-4099-8e00-af152ccd399f">
    <path d="M 360.5 126.5 L 350.5 131.5 L 353.0 126.5 L 350.5 121.5 z" fill="#000000" stroke="#000000" stroke-width="1.0"/>
    <path d="M 328.0 107.5 L 336.25 107.5 Q 344.5 107.5 344.5 117.0 L 344.5 121.75 Q 344.5 126.5 352.75 126.5 L 361.0 126.5" fill="none" stroke="#000000" stroke-width="1.0"/>
  </g>
  <g id="node_16d45251-ecd7-417d-b6be-f93af78e7c6c">
    <path d="M 81.0 171.5 L 71.0 176.5 L 73.5 171.5 L 71.0 166.5 z" fill="#000000" stroke="#000000" stroke-width="1.0"/>
    <path d="M 33.5 164.0 L 47.0 164.0 Q 57.0 164.0 57.0 167.75 L 57.0 169.625 Q 57.0 171.5 67.0 171.5 L 81.5 171.5" fill="none" stroke="#000000" stroke-width="1.0"/>
  </g>
  <g id="node_d9ec2169-2a59-4420-ae57-c7e76ba7cf2c">
    <path d="M 771.0 169.5 L 761.0 174.5 L 763.5 169.5 L 761.0 164.5 z" fill="#000000" stroke="#000000" stroke-width="1.0"/>
    <path d="M 738.0 170.5 L 746.25 170.5 Q 754.5 170.5 754.5 170.0 L 754.5 169.75 Q 754.5 169.5 763.0 169.5 L 771.5 169.5" fill="none" stroke="#000000" stroke-width="1.0"/>
  </g>
  <g id="node_a1f71adb-a3a7-49f6-9b61-62643c5b927e">
    <path d="M 1515.5 162.0 L 1505.5 167.0 L 1508.0 162.0 L 1505.5 157.0 z" fill="#000000" stroke="#000000" stroke-width="1.0"/>
    <path d="M 1471.5 168.5 L 1483.5 168.5 Q 1493.5 168.5 1493.5 165.25 L 1493.5 163.625 Q 1493.5 162.0 1503.5 162.0 L 1516.0 162.0" fill="none" stroke="#000000" stroke-width="1.0"/>
  </g>
  <g id="node_b47da9ee-ac4f-4882-b57f-b7af7904b208">
    <path d="M 491.0 107.5 L 481.0 112.5 L 483.5 107.5 L 481.0 102.5 z" fill="#000000" stroke="#000000" stroke-width="1.0"/>
    <path d="M 446.5 126.5 L 458.5 126.5 Q 468.5 126.5 468.5 117.0 L 468.5 112.25 Q 468.5 107.5 478.5 107.5 L 491.5 107.5" fill="none" stroke="#000000" stroke-width="1.0"/>
  </g>
  <g id="node_915d36f4-8630-47bd-ad48-81dc1b4b906a">
    <path d="M 1385.5 168.5 L 1375.5 173.5 L 1378.0 168.5 L 1375.5 163.5 z" fill="#000000" stroke="#000000" stroke-width="1.0"/>
    <path d="M 1353.0 169.5 L 1361.25 169.5 Q 1369.5 169.5 1369.5 169.0 L 1369.5 168.75 Q 1369.5 168.5 1377.75 168.5 L 1386.0 168.5" fill="none" stroke="#000000" stroke-width="1.0"/>
  </g>
  <g id="node_0c9e413e-2717-4513-9d7c-3f2e51791927">
    <path d="M 845.5 168.5 L 835.5 173.5 L 838.0 168.5 L 835.5 163.5 z" fill="#000000" stroke="#000000" stroke-width="1.0"/>
    <path d="M 813.0 169.5 L 821.25 169.5 Q 829.5 169.5 829.5 169.0 L 829.5 168.75 Q 829.5 168.5 837.75 168.5 L 846.0 168.5" fill="none" stroke="#000000" stroke-width="1.0"/>
  </g>
  <g id="node_862c049e-6f4e-45f4-a6a4-964d6f61f5ed">
    <path d="M 1236.0 239.5 L 1226.0 244.5 L 1228.5 239.5 L 1226.0 234.5 z" fill="#000000" stroke="#000000" stroke-width="1.0"/>
    <path d="M 1191.5 308.5 L 1203.5 308.5 Q 1213.5 308.5 1213.5 298.5 L 1213.5 249.5 Q 1213.5 239.5 1223.5 239.5 L 1236.5 239.5" fill="none" stroke="#000000" stroke-width="1.0"/>
  </g>
  <g id="node_382312b6-ec2c-4ace-80ce-a1e8e9f6f895">
    <path d="M 491.0 241.5 L 481.0 246.5 L 483.5 241.5 L 481.0 236.5 z" fill="#000000" stroke="#000000" stroke-width="1.0"/>
    <path d="M 446.5 294.5 L 458.5 294.5 Q 468.5 294.5 468.5 284.5 L 468.5 251.5 Q 468.5 241.5 478.5 241.5 L 491.5 241.5" fill="none" stroke="#000000" stroke-width="1.0"/>
  </g>
  <g id="node_964fd667-f14a-4bb0-ad69-54a3aca32b5d">
    <path d="M 975.5 168.5 L 965.5 173.5 L 968.0 168.5 L 965.5 163.5 z" fill="#000000" stroke="#000000" stroke-width="1.0"/>
    <path d="M 931.5 168.5 L 943.5 168.5 Q 953.5 168.5 953.5 168.5 L 953.5 168.5 L 976.0 168.5" fill="none" stroke="#000000" stroke-width="1.0"/>
  </g>
  <g id="node_9b9a7e46-2b4f-4b91-a7a4-b8f2efd90e7b">
    <path d="M 360.5 56.5 L 350.5 61.5 L 353.0 56.5 L 350.5 51.5 z" fill="#000000" stroke="#000000" stroke-width="1.0"/>
    <path d="M 328.0 107.5 L 336.25 107.5 Q 344.5 107.5 344.5 97.5 L 344.5 66.5 Q 344.5 56.5 352.75 56.5 L 361.0 56.5" fill="none" stroke="#000000" stroke-width="1.0"/>
  </g>
  <g id="node_3fae59b7-b008-4fc4-8a95-d2d93703d6be">
    <path d="M 1105.5 308.5 L 1095.5 313.5 L 1098.0 308.5 L 1095.5 303.5 z" fill="#000000" stroke="#000000" stroke-width="1.0"/>
    <path d="M 1046.0 262.5 L 1065.75 262.5 Q 1075.75 262.5 1075.75 272.5 L 1075.75 298.5 Q 1075.75 308.5 1085.75 308.5 L 1106.0 308.5" fill="none" stroke="#000000" stroke-width="1.0"/>
  </g>
</svg>
